<svg><defs><font id="iconfont" horiz-adv-x="1024"><font-face font-family="iconfont" font-weight="500" units-per-em="1024" ascent="896" descent="-128"/><glyph glyph-name="x" unicode="x" horiz-adv-x="1001" d="M281 543q-27-1-53-1h-83q-18 0-36.5-6T76 517.5t-23-32-9-45.5v-76h912v41q0 16-.5 30t-.5 18q0 13-5 29t-17 29.5-31.5 22.5-49.5 9H719v-97H281v97zm674-233v-52q0-23 .5-52t.5-58-10.5-47.5-26-30-33-16T855 50q-14-1-29.5-.5T796 50h-32l-45 128H280L236 50h-63q-20 0-45 1-25 0-41 9.5t-25.5 23T48 113t-4 30v167h911zm-792-63q-12 0-21-8.5t-9-21.5 9-21.5 21-8.5q13 0 22 8.5t9 21.5-9 21.5-22 8.5zm153-124q-8-26-14-48-5-19-10.5-37T284 13t-3-15 1-14.5 9.5-10.5 21.5-4h365q23 0 34 12t2 38q-5 13-9.5 30.5T695 84q-5 19-11 39H316zm20 375v228q0 11 2.5 23t10 21.5T369 786t34 6h188q31 0 51.5-14.5T663 725V498H336z"/><glyph glyph-name="dianhua" unicode="" d="M605.323 812.79a40.17 40.17 0 01-6.598.82c-19.754.756-37.037-12.75-41.018-32.153-2.194-10.526-.15-21.287 5.788-30.3 5.918-9.005 14.986-15.157 25.523-17.306 84.826-17.509 157.859-67.094 205.625-139.617 47.745-72.554 64.392-159.22 46.937-244.045-2.194-10.56-.15-21.299 5.788-30.291 5.918-9.004 14.986-15.145 25.523-17.328a45.93 45.93 0 016.62-.808c8.452-.32 16.624 1.98 23.693 6.62 9.003 5.928 15.155 15.006 17.326 25.533 45.084 218.918-96.298 433.76-315.207 478.876zm69.395-605.464c2.383-1.554 55.577-35.708 96.448-77.684 15.389-15.879 41.167-42.444 40.485-73.267-.574-21.052-12.452-42.168-36.335-64.454-5.939-5.832-59.133-55.515-144.234-55.515-23.31 0-47.256 3.703-71.181 10.985-25.14 7.62-50.705 19.392-75.907 34.93-99.513 58.771-176.314 134.444-249.24 245.44C109.4 418.53 105.802 581.911 106.377 612.702c.213 142.106 118.565 198.004 132.06 203.922 18.561 8.61 34.782 12.75 49.724 12.75 7.152 0 14.007-.968 20.35-2.906 13.048-3.958 31.163-14.218 43.338-40.592 16.604-35.782 32.314-87.082 43.041-140.787 11.283-55.738-19.967-71.383-50.192-86.507l-1.193-.521s-53.471-22.31-62.879-26.183c-9.238-3.852-14.05-14.261-10.9-23.776 21.564-65.327 54.494-133.071 95.193-195.907 40.04-61.827 87.656-118.884 137.679-165.075 3.575-3.257 8.173-5.087 13.028-5.087l1.64.085c5.257.425 10.217 3.086 13.516 7.321 8.13 10.451 20.604 25.512 33.76 38.039 24.946 23.723 47.509 35.239 68.967 35.239 5.875 0 11.708-.862 17.327-2.576 5.383-1.651 14.09-6.334 23.882-12.815zM505.449 482.312c-10.558 2.193-19.627 8.323-25.543 17.316-5.96 9.004-8.004 19.776-5.833 30.333 4.045 19.381 21.286 32.898 41.018 32.11a38.215 38.215 0 006.62-.787c93.553-19.286 153.986-111.136 134.72-204.732-2.15-10.493-8.28-19.55-17.284-25.521-7.088-4.63-15.304-6.919-23.691-6.62-2.172.115-4.386.362-6.599.83-10.58 2.139-19.668 8.313-25.586 17.327-5.917 8.972-7.961 19.71-5.79 30.268 4.981 24.224.257 48.959-13.41 69.67-13.623 20.67-34.42 34.824-58.622 39.806zm41.891 126.27c-21.755 4.512-35.804 25.852-31.334 47.596 4.002 19.423 21.244 32.951 40.998 32.184a40.73 40.73 0 006.619-.819c75.714-15.613 140.852-59.845 183.51-124.608 42.593-64.721 57.47-142.064 41.848-217.78-2.172-10.558-8.324-19.647-17.328-25.533-7.087-4.672-15.24-6.96-23.67-6.63a40.822 40.822 0 00-6.64.83c-21.713 4.459-35.782 25.81-31.313 47.596 11.261 54.63.533 110.485-30.248 157.241-30.779 46.732-77.779 78.672-132.442 89.923z" horiz-adv-x="1024"/><glyph glyph-name="password" unicode="" d="M811.1 526h-79.8c0 128.3-97.9 226.2-222.9 226.2s-222.9-98-222.9-226.2h-79.8c0 153.9 135.8 306.1 302.7 306.1C675.3 832 811.1 679.9 811.1 526zm47.2-131.2c0 44.1-35.8 79.8-79.8 79.8H245.6c-44.1 0-79.8-35.8-79.8-79.8v-379c0-44.1 35.8-79.8 79.8-79.8h532.9c44.1 0 79.8 35.8 79.8 79.8v379zM576.1 98.5c0-33.1-26.8-59.9-59.9-59.9h-8.5c-33.1 0-59.9 26.8-59.9 59.9v162.4c0 33.1 26.8 59.9 59.9 59.9h8.5c33.1 0 59.9-26.8 59.9-59.9V98.5zm0 0z" horiz-adv-x="1024"/><glyph glyph-name="xiangyou" unicode="" d="M512 853.333C251.733 853.333 42.667 644.267 42.667 384S251.733-85.333 512-85.333 981.333 123.733 981.333 384 772.267 853.333 512 853.333zm0-896c-234.667 0-426.667 192-426.667 426.667 0 234.667 192 426.667 426.667 426.667s426.667-192 426.667-426.667c0-234.667-192-426.667-426.667-426.667zM462.933 633.6c-4.266 4.267-8.533 6.4-14.933 6.4-12.8 0-21.333-8.533-21.333-21.333 0-6.4 2.133-10.667 6.4-14.934L631.467 384 430.933 164.267c-2.133-4.267-4.266-8.534-4.266-14.934 0-12.8 8.533-21.333 21.333-21.333 6.4 0 10.667 2.133 14.933 6.4l213.334 234.667c4.266 4.266 6.4 8.533 6.4 14.933s-2.134 10.667-6.4 14.933L462.933 633.6z" horiz-adv-x="1024"/><glyph glyph-name="iconset0481" unicode="" d="M512 853.333C253.867 853.333 42.667 644.267 42.667 384S253.867-85.333 512-85.333c260.267 0 469.333 209.066 469.333 469.333S772.267 853.333 512 853.333zm0-896c-234.667 0-426.667 192-426.667 426.667 0 234.667 192 426.667 426.667 426.667 234.667 0 426.667-192 426.667-426.667 0-234.667-192-426.667-426.667-426.667zm204.8 443.734l-4.267 2.133H710.4L418.133 571.733c-4.266 2.134-8.533 4.267-12.8 4.267-12.8 0-21.333-8.533-21.333-21.333V213.333c0-12.8 8.533-21.333 21.333-21.333 4.267 0 8.534 2.133 12.8 4.267L710.4 364.8h2.133l4.267 2.133c4.267 4.267 8.533 10.667 8.533 17.067s-4.266 12.8-8.533 17.067zM426.667 249.6v268.8L661.333 384 426.667 249.6z" horiz-adv-x="1024"/><glyph glyph-name="user" unicode="" d="M512.028 479.105c98.202 0 178.09 79.928 178.09 178.172 0 98.248-79.889 178.172-178.09 178.172s-178.094-79.924-178.094-178.172c0-98.244 79.891-178.172 178.094-178.172zm238.975-86.341c-.076.022-.223.076-.296.099-23.188 5.663-94.199 15.601-94.199 15.601-8.014 2.468-16.581-1.777-19.465-9.693L530.16 105.378c-6.166-16.922-30.093-16.922-36.26 0L387.016 398.771a15.781 15.781 0 01-14.815 10.398c-1.532 0-74.544-10.239-98.85-16.289-66.42-16.524-108.316-81.864-108.316-149.964V-1.207c0-36.581 29.646-66.243 66.215-66.243h561.498c36.569 0 66.215 29.66 66.215 66.243V243.73c-.003 67.8-43.537 127.973-107.96 149.034zm-198.666 21.294c-4.266 4.654-10.504 6.99-16.811 6.99h-47.054c-6.31 0-12.549-2.343-16.81-6.99a21.842 21.842 0 01-2.876-25.723l25.155-37.937-11.775-99.382 23.188-61.713c2.26-6.207 11.034-6.207 13.293 0l23.189 61.713-11.776 99.382 25.155 37.937a21.85 21.85 0 01-2.878 25.723z" horiz-adv-x="1024"/><glyph glyph-name="diamondzuanshi" unicode="" d="M932.019 512.081l-1.94-1.856L523.305-32.222l-3.797-3.797h-1.856c-1.265-1.265-3.122-1.856-5.653-1.856-2.531 0-4.388.59-5.653 1.856h-1.856l-3.797 3.797L93.922 510.225c-1.266 0-1.856.59-1.856 1.856v1.856c-1.35 1.266-1.941 2.532-1.941 3.797v5.654l1.856 1.856c0 1.181.59 2.531 1.857 3.797v1.856l210.937 210.937c2.531 1.182 4.388 1.857 5.653 1.857 1.266 1.18 3.122 1.856 5.653 1.856h391.753c2.532 0 4.388-.675 5.653-1.856 1.266 0 2.532-.675 3.797-1.857h1.857l210.937-210.937c1.266-2.531 1.856-4.388 1.856-5.653l1.941-1.856v-5.654l-1.856-3.797v-1.856zm-796.669-7.51L463.062 67.595 304.86 504.572H135.35zm165.713 190.182l-160.06-160.06h160.06v160.06zM478.08 715.51H331.184V557.306L478.081 715.51zM336.837 504.572L512 22.369l175.162 482.118H336.838zM674 534.694L512 707.916 350 534.694h324zm18.816 180.815H545.919l146.897-158.203V715.51zM560.937 67.594L888.65 504.572H719.14L560.939 67.594zm322.06 467.1l-160.06 160.06v-160.06h160.06z" horiz-adv-x="1025"/><glyph glyph-name="dianhua2" unicode="" d="M767.04-100.587c-17.707 0-34.347 2.774-49.28 8.214-19.2 5.12-183.253 54.186-405.547 276.586C96.64 399.68 42.56 569.28 36.693 589.227c-10.026 25.28-12.053 56.106-5.546 86.72 6.506 30.72 21.013 58.56 40.746 78.293l83.84 83.84c19.627 19.627 45.014 30.507 71.467 30.507 30.613 0 59.413-14.614 79.147-40L429.12 670.293c20.693-26.666 23.147-70.186 5.76-99.2l-59.947-99.306c5.654-18.774 25.174-65.28 90.88-134.934 73.067-69.226 118.507-86.4 133.44-90.346l99.84 60.266c12.16 7.36 27.947 11.414 44.374 11.414 20.693 0 40.64-6.187 54.72-17.067L956.48 178.24c23.893-18.56 37.973-44.48 39.787-73.067 1.813-28.586-8.96-56.106-30.294-77.44L882.24-56c-27.413-27.52-71.573-44.587-115.2-44.587zM227.093 815.68c-12.266 0-24.32-5.333-34.026-14.933l-83.734-83.734c-25.706-25.706-36.586-76.586-23.146-108.906l.106-.107.96-2.773v-.214c.427-1.706 49.067-170.026 262.294-383.253C569.707 1.6 730.453-40.853 732.053-41.28l.32-.107 2.56-.746.107-.107c9.173-3.52 20.267-5.333 32-5.333 29.653 0 60.267 11.413 77.867 29.013l83.733 83.733c10.453 10.454 15.787 23.467 14.933 36.694-.853 13.226-7.786 25.493-19.413 34.56l-158.293 122.88c-4.907 3.84-13.44 6.186-22.187 6.186-6.827 0-13.013-1.386-17.173-3.946L611.733 192.32l-7.466.107c-6.507.106-66.454 3.626-175.68 107.093l-.214.213C329.387 404.267 321.067 467.2 320.427 474.027l-.747 8.64L389.547 598.4c6.4 10.56 5.226 29.653-2.24 39.36l-122.88 158.4c-9.707 12.587-23.04 19.52-37.334 19.52z" horiz-adv-x="1024"/><glyph glyph-name="qiandai" unicode="" d="M382.625 563.495h279.628c18.859 0 37.015 7.982 49.12 22.455 28.857 34.296 56.224 76.398 62.364 114.114 12.367 75.521-20 113.852-113.852 113.852s-62.1-61.575-98.59-66.662c-27.19-3.772-26.225 32.103-68.942 66.574-30.7 24.647-65.082-44.997-105.606-45.435-47.277-.614-113.764 12.455-113.764-68.328 0-32.63 28.595-76.75 59.82-113.325 12.544-14.649 30.613-23.245 49.822-23.245zm348.834-71.924c-14.911 16.929-36.576 26.402-59.119 26.402H373.941c-21.577 0-42.365-8.684-57.276-24.297-93.766-98.238-180.25-238.491-180.25-340.765 0-90.168 90.607-204.02 202.353-204.02h346.466c111.746 0 202.354 112.887 202.354 204.02 0 104.116-69.557 240.421-156.13 338.66zm-91.134-124.114L580.33 258.605c-5.263-9.56 1.666-21.314 12.543-21.314h17.016c7.894 0 14.385-6.403 14.385-14.385 0-7.894-6.403-14.384-14.385-14.384h-42.804c-8.333 0-14.999-6.667-15.087-15v-7.104c0-7.894 6.403-14.385 14.385-14.385h43.506c7.894 0 14.384-6.403 14.384-14.385s-6.403-14.385-14.384-14.385h-43.506c-7.894 0-14.385-6.403-14.385-14.384V92.302c0-7.894-6.403-14.385-14.385-14.385h-26.05c-7.895 0-14.385 6.404-14.385 14.385v36.577c0 7.894-6.403 14.384-14.385 14.384h-43.067c-7.894 0-14.385 6.403-14.385 14.385s6.403 14.385 14.385 14.385h42.98c7.981 0 14.384 6.403 14.472 14.385l.088 7.017c.087 8.333-6.667 15.174-15.087 15.174h-42.453c-7.894 0-14.385 6.403-14.385 14.385 0 7.894 6.403 14.385 14.385 14.385h16.578c10.964 0 17.805 11.753 12.543 21.314L408.85 367.545c-5.263 9.56 1.666 21.314 12.543 21.314h28.594c5.438 0 10.438-3.07 12.806-7.894l48.856-97.45c5.263-10.525 20.35-10.525 25.7 0l48.856 97.45c2.456 4.824 7.368 7.894 12.807 7.894h28.594c11.051-.175 17.981-11.841 12.718-21.402z" horiz-adv-x="1024"/><glyph glyph-name="qianbao" unicode="" d="M1017.201 41.076v-.003c-.002-64.973-52.67-117.648-117.64-117.648a.007.007 0 01-.004-.001h-752.95l-.009.001C81.63-76.575 28.96-23.902 28.96 41.073V746.96c0 51.979 42.14 94.12 94.121 94.12h.01l380.472-.003 83.293 41.44c12.088 4.388 30.657 5.949 40.363-2.04l22.69-39.398h179.06c51.98 0 94.114-42.138 94.114-94.12v-70.585h.004c51.979 0 94.117-42.136 94.117-94.12l-.003-541.179zM123.081 794.02h-.003c-25.988 0-47.056-44.595-47.056-70.588 0-25.991 21.068-47.06 47.062-47.06h34.004-23.53 4.458c.3.12.5.378.81.494l281.927 117.152-297.672.002zm495.946-4.244l-25.011 45.256-.003.001-83.807-41.015h-.213L250.24 676.371h424.997l-56.209 113.404zm257.002-42.817c0 25.99-21.07 47.06-47.06 47.06H667.021l57.747-117.645H876.03v70.585h-.001zm47.06-117.65H123.08c-.006 0-.011.007-.02.007-17.228.003-33.155 4.973-47.041 13.053V41.076c0-38.988 31.604-70.586 70.586-70.586H899.55c38.986 0 70.588 31.598 70.588 70.586v164.709h-94.12c-51.978 0-94.113 42.133-94.113 94.114 0 51.978 42.135 94.116 94.112 94.116h94.121v188.237c.003 25.991-21.067 47.056-47.05 47.056zm47.05-376.468l.002 94.119h-94.116c-25.99 0-47.06-21.069-47.06-47.06 0-25.994 21.07-47.06 47.06-47.06h94.115zm-94.115 70.59h47.06v-47.052h-47.06v47.053z" horiz-adv-x="1037"/><glyph glyph-name="zhangdan" unicode="" d="M272.048 168.425c-21.43 0-38.834-17.48-38.834-39.048 0-21.538 17.405-39.025 38.834-39.025h142.674a345.047 345.047 0 00-3.978 52.34c0 8.66.326 17.236.957 25.733H272.048zm258.598 234.297H272.048c-21.43 0-38.834-17.486-38.834-39.049 0-21.565 17.405-39.047 38.834-39.047h191.018a342.056 342.056 0 0067.58 78.096zm235.738 375.336h38.838c42.846 0 77.728-35.027 77.728-78.11v-243.65c28.038-12.03 54.125-27.75 77.679-46.546v290.202c0 86.263-69.588 156.193-155.407 156.193h-38.838c-21.488 0-38.87-17.491-38.87-39.04s17.383-39.049 38.87-39.049zm-385.454 0h194.24c32.23 0 58.284 26.23 58.284 58.575 0 32.332-26.11 58.562-58.283 58.562H380.93c-32.2 0-58.32-26.23-58.32-58.562 0-32.338 26.119-58.575 58.32-58.575zm74.954-805.372H155.507c-42.878 0-77.708 35.027-77.708 78.102v649.166c0 43.076 34.83 78.103 77.708 78.103h38.868c21.428 0 38.839 17.5 38.839 39.049 0 21.548-17.41 39.048-38.84 39.048h-38.867C69.66 856.154.069 786.217.069 699.954V50.797c0-86.273 69.59-156.2 155.438-156.2h361.859a341.96 341.96 0 00-61.482 78.089zM272.048 558.298h416.598c21.459 0 38.869 17.483 38.869 39.04 0 21.548-17.411 39.047-38.869 39.047H272.048c-21.43 0-38.834-17.498-38.834-39.047 0-21.557 17.405-39.04 38.834-39.04zm477.845-145.244c-148.572 0-269.013-121.046-269.013-270.36 0-149.313 120.441-270.355 269.013-270.355 148.571 0 269.013 121.042 269.013 270.355 0 149.314-120.442 270.36-269.013 270.36zm176.292-253.32c0-7.654-6.503-14.023-14.31-14.023v-.008H772.66V87.035h139.217c7.807 0 14.31-6.374 14.31-14.025V47.502c0-7.646-6.503-14.031-14.31-14.031H771.361v-53.56c0-7.658-6.505-14.03-14.309-14.03h-26.025c-7.804 0-14.307 6.372-14.307 14.03v53.56H587.913c-7.804 0-14.306 6.385-14.306 14.03V73.01c0 7.652 6.502 14.025 14.306 14.025h128.808v58.668H587.913c-7.804 0-14.306 6.378-14.306 14.031v25.506c0 7.65 6.502 14.031 14.306 14.031h87.171l-48.265 78.061c-4.861 8.525-5.082 25.072 9.281 33.334 18.327 10.684 35.203-2.467 35.203-2.467L742.74 199.27h3.905l67.971 108.93c6.952 11.685 24.79 15.925 40.224 4.93 18.808-14.14 7.548-32.04 7.548-32.04l-49.391-81.818h98.878c7.807 0 14.31-6.378 14.31-14.03v-25.507z" horiz-adv-x="1024"/><glyph glyph-name="youxiang" unicode="" d="M512.012 328.47L977.81 716.543c-2.524.46-4.79 1.512-7.408 1.512H53.626c-2.565 0-4.845-1.038-7.37-1.512l465.756-388.075zm500.068 347.907c0 4.373-1.203 8.422-2.524 12.402l-330.188-275.2 330.687-330.74c.85 3.334 2.025 6.545 2.025 10.15v583.388zM14.484 688.822c-1.282-4.008-2.564-8.003-2.564-12.444V93.001c0-3.644 1.255-6.842 2.079-10.175l330.794 330.767-330.31 275.23zm632.678-302.02L525.32 285.318c-3.819-3.252-8.543-4.818-13.309-4.818-4.723 0-9.475 1.566-13.333 4.818l-121.735 101.43L43.546 53.376c3.28-.865 6.533-2.065 10.082-2.065h916.788c3.618 0 6.869 1.187 10.215 2.065L647.162 386.802z" horiz-adv-x="1024"/><glyph glyph-name="xiangyou1" unicode="" d="M726.384 385.324c-13.772 16.345-27.655 32.599-41.304 49.046-119.264 143.717-238.484 287.47-357.754 431.185-1.476 1.782-3.399 3.194-5.116 4.78v-50.357c3.108-3.325 6.402-6.498 9.3-9.997a2153339.169 2153339.169 0 00348.52-420.878c1.394-1.684 2.724-3.423 4.465-5.617-7.199-8.713-14.319-17.35-21.463-25.971a4567110.616 4567110.616 0 00-337.65-407.518c-.97-1.172-2.112-2.204-3.174-3.302v-49.03c2.135 2.096 4.477 4.017 6.375 6.31C460.594 63.34 592.572 222.734 724.558 382.12c.555.67 1.214 1.255 1.824 1.878.002.442.002.884.002 1.325z" horiz-adv-x="1024"/><glyph glyph-name="iconfontdialog" unicode="" d="M512.002 737.208c-230.228 0-416.877-162.294-416.877-362.504 0-117.203 63.976-221.407 163.207-287.669L258.25-66l136.265 92.805c37.263-9.5 76.69-14.602 117.485-14.602 230.228 0 416.876 162.293 416.876 362.5.002 200.21-186.643 362.505-416.873 362.505zm0-688.756c-45.334 0-88.814 6.8-129.138 19.264l-32.642-27.203c.63-.23 1.264-.454 1.895-.683L295.083-.648l-.583 74.305v33.277c-98.606 58.956-163.126 156.9-163.126 267.77 0 180.189 170.418 326.25 380.628 326.25 210.208 0 380.626-146.062 380.626-326.25 0-180.19-170.418-326.252-380.626-326.252zM367.83 411.75c-19.25 0-34.967-15.604-34.967-34.853s15.719-34.853 34.967-34.853 34.856 15.604 34.856 34.853-15.606 34.853-34.856 34.853zm329.61 0c-19.249 0-34.855-15.604-34.855-34.853s15.606-34.853 34.854-34.853c19.251 0 34.855 15.604 34.855 34.853s-15.604 34.853-34.855 34.853zm-160.443 0c-19.249 0-34.853-15.604-34.853-34.853s15.604-34.853 34.853-34.853c19.25 0 34.856 15.604 34.856 34.853s-15.606 34.853-34.856 34.853z" horiz-adv-x="1024"/><glyph glyph-name="dizhi" unicode="" d="M511.999 825.728c-194.99 0-353.054-158.067-353.054-353.054 0-194.992 276.679-493.406 276.679-493.406 42.18-49.235 111.21-49.495 152.98.265 0 0 276.449 298.149 276.449 493.141 0 194.987-158.065 353.054-353.054 353.054zm0-505.102c-90.215 0-163.325 73.122-163.325 163.327s73.11 163.325 163.325 163.325c90.2 0 163.315-73.12 163.315-163.325s-73.116-163.327-163.315-163.327z" horiz-adv-x="1024"/><glyph glyph-name="yaochi" unicode="" d="M104.9 374.494c107.591-107.59 273.458-116.555 390.013-31.38l98.623-98.624-125.522-125.52c-17.932-17.932-17.932-44.832 0-62.761 17.931-17.932 44.83-17.932 62.762 0l125.52 125.52 98.623-98.623-85.173-85.175c-17.932-17.931-17.932-44.83 0-62.76 17.93-17.932 44.828-17.932 62.76 0l85.175 85.175 112.072-107.59c17.933-17.931 44.829-17.931 62.76 0 17.932 17.932 17.932 44.83 0 62.762L849.061 118.971 687.677 280.355 557.673 410.357c89.658 116.555 80.692 286.905-26.895 390.011-58.28 58.277-134.489 89.658-210.698 89.658s-152.418-31.38-210.694-89.658C-11.654 683.813-11.654 495.53 104.9 374.494zm62.76 363.114c85.177 85.176 219.662 85.176 300.356 0 80.693-80.692 80.693-215.179 0-300.354-40.346-40.346-94.141-62.76-147.936-62.76-53.794 0-107.587 22.414-147.933 62.76C86.97 522.43 86.97 656.916 167.66 737.608z" horiz-adv-x="1024"/><glyph glyph-name="xiala" unicode="" d="M787.2 515.2c-9.6 9.6-22.4 12.8-35.2 12.8l-480-3.2c-12.8 0-25.6-3.2-35.2-12.8-19.2-19.2-19.2-48 0-67.2l240-240c3.2-3.2 9.6-6.4 12.8-9.6l3.2-3.2c16-6.4 38.4-3.2 51.2 9.6l240 243.2c22.4 22.4 19.2 51.2 3.2 70.4z" horiz-adv-x="1024"/><glyph glyph-name="chenggong" unicode="" d="M515.49 891.988c-277.002 0-501.551-224.549-501.551-501.551 0-277.003 224.549-501.551 501.551-501.551 115.022 0 224.151 38.849 312.257 109.045 10.575 8.422 12.31 23.824 3.887 34.377-8.422 10.575-23.802 12.31-34.377 3.887C717.74-27.146 619.311-62.17 515.47-62.17c-249.981 0-452.629 202.647-452.629 452.628 0 249.982 202.648 452.63 452.63 452.63 249.98 0 452.628-202.648 452.628-452.63 0-85.702-23.845-167.831-68.148-238.989-7.147-11.452-3.657-26.56 7.816-33.687 11.473-7.147 26.56-3.657 33.708 7.816 49.131 78.848 75.567 169.942 75.567 264.86 0 276.982-224.549 501.53-501.551 501.53zm281.036-359.55l-293.7-303.125c-9.237-9.53-24.367-9.968-34.127-.982l-177.737 163.38c-9.947 9.133-10.595 24.618-1.463 34.566 9.154 9.947 24.618 10.595 34.566 1.462l160.203-147.247 277.128 286.01c9.383 9.697 24.89 9.947 34.586.543 9.718-9.404 9.948-24.91.544-34.607z" horiz-adv-x="1024"/><glyph glyph-name="dingdan" unicode="" d="M752 704c26.496 0 48 21.504 48 48v96c0 26.496-21.504 48-48 48s-48-21.504-48-48v-96c0-26.496 21.504-48 48-48zm-240 0c26.496 0 48 21.504 48 48v96c0 26.496-21.504 48-48 48s-48-21.504-48-48v-96c0-26.496 21.504-48 48-48zm416 96h-80v-48c0-53.008-42.976-96-96-96-53.008 0-96 43.008-96 96v48h-48v-48c0-53.008-42.976-96-96-96-53.008 0-96 43.008-96 96v48h-48v-48c0-53.008-42.976-96-96-96-53.008 0-96 43.008-96 96v48H96c-26.496 0-48-21.504-48-48V-80c0-26.496 21.504-48 48-48h832c26.496 0 48 21.504 48 48v832c0 26.496-21.504 48-48 48zM808 32H216c-22.096 0-40 17.904-40 40s17.904 40 40 40h592c22.096 0 40-17.904 40-40s-17.904-40-40-40zm-8 192H224c-26.496 0-48 21.504-48 48s21.504 48 48 48h576c26.496 0 48-21.504 48-48s-21.504-48-48-48zm0 208H224c-26.496 0-48 21.504-48 48s21.504 48 48 48h576c26.496 0 48-21.504 48-48s-21.504-48-48-48zM272 704c26.496 0 48 21.504 48 48v96c0 26.496-21.504 48-48 48s-48-21.504-48-48v-96c0-26.496 21.504-48 48-48z" horiz-adv-x="1024"/><glyph glyph-name="xiangqing" unicode="" d="M512-128C229.888-128 0 101.888 0 384s229.888 512 512 512 512-229.888 512-512-229.888-512-512-512zm0 972.8C258.048 844.8 51.2 637.952 51.2 384S258.048-76.8 512-76.8 972.8 130.048 972.8 384 765.952 844.8 512 844.8zm-5.632-762.88C485.376 70.144 467.968 64 454.656 64c-11.776 0-20.992 3.584-28.16 10.752-6.656 7.168-10.24 17.408-10.24 30.208 0 40.96 25.088 141.312 75.776 301.056 2.56 7.68 3.584 14.336 3.584 19.968 0 6.656-3.072 9.728-9.216 9.728-6.656 0-14.336-2.56-23.04-7.68-8.704-5.12-27.648-22.016-57.344-50.176L384 394.752c33.792 36.352 64 61.952 91.648 77.312 27.648 15.36 51.2 23.04 70.656 23.04 10.752 0 18.944-2.048 24.576-6.656 5.632-4.608 8.704-10.752 8.704-18.944 0-9.728-10.752-50.176-32.768-121.344-35.328-116.736-53.248-186.88-53.248-210.944 0-4.608 1.024-8.704 3.584-11.776 2.56-3.072 5.12-4.608 7.68-4.608 10.752 0 38.4 20.48 82.432 60.928l19.456-18.944c-45.568-41.984-78.848-69.12-100.352-80.896zM624.64 629.76c-10.24-11.264-21.504-16.384-34.304-16.384-10.24 0-18.432 3.584-25.088 10.24-6.656 6.656-10.24 15.872-10.24 27.136 0 14.848 4.608 27.136 14.848 37.888 9.728 10.24 21.504 15.36 34.816 15.36 10.24 0 18.944-3.584 25.6-10.24 6.656-6.656 10.24-15.36 10.24-26.112-.512-13.824-5.632-26.624-15.872-37.888z" horiz-adv-x="1024"/><glyph glyph-name="weixin" unicode="" d="M506.942 550.079c25.259 0 42.134 16.916 42.134 42.107 0 25.477-16.848 41.956-42.134 41.956-25.299 0-50.668-16.48-50.668-41.956.028-25.204 25.409-42.107 50.668-42.107zm0 0zm-235.685 84.064c-25.259 0-50.79-16.48-50.79-41.956 0-25.19 25.532-42.107 50.79-42.107 25.163 0 42.012 16.916 42.012 42.107-.014 25.477-16.834 41.956-42.012 41.956zm0 0zm739.397-353.635c0 133.202-123.563 246.702-275.237 258.512.205 1.652.301 3.373-.068 5.092-30.406 141.79-182.886 248.695-354.7 248.695-194.15 0-352.119-135.387-352.119-301.793 0-89.279 45.574-169.725 131.946-233.158l-30.106-90.508a15.42 15.42 0 014.506-16.452 15.435 15.435 0 0110.076-3.741c2.335 0 4.697.546 6.867 1.625l113.036 56.565 13.926-2.827c34.802-7.154 64.853-13.353 101.868-13.353 10.895 0 40.878 3.987 43.404 7.182 40.755-101.99 153.094-175.61 285.273-175.61 33.86 0 68.13 8.164 98.891 15.866l87.136-47.636c2.307-1.257 4.847-1.911 7.359-1.911 3.441 0 6.881 1.161 9.639 3.413 4.847 3.932 6.841 10.404 5.038 16.33L895.134 80.8c74.602 58.955 115.521 129.488 115.521 199.708zM409.798 230.25a338.345 338.345 0 00-29.082-1.243c-32.686 0-60.334 5.652-92.31 12.26l-18.582 3.755a14.266 14.266 0 01-9.503-1.269l-81.687-40.892 21.231 63.775c2.076 6.24-.205 13.053-5.57 16.821-82.07 57.207-123.659 126.894-123.659 207.093 0 144.179 139.087 261.516 310.067 261.516 151.142 0 284.959-91.955 312.579-214.261-158.475-2.076-286.706-113.487-286.706-250.32 0-19.893 3.018-39.171 8.11-57.767-1.542.382-3.168.683-4.887.532zm450.573-122.949c-4.875-3.673-6.935-10.007-5.188-15.852l13.804-45.903-56.647 30.993a14.577 14.577 0 01-7.004 1.803c-1.188 0-2.389-.15-3.564-.464-30.379-7.674-61.822-15.593-92.433-15.593-142.186 0-257.857 97.717-257.857 217.811 0 120.095 115.658 217.771 257.857 217.771 139.469 0 257.325-99.724 257.325-217.771 0-59.87-37.738-121.255-106.291-172.797zm7.81-8.479zM616.454 389.994c-16.848 0-33.696-16.971-33.696-33.792 0-16.944 16.848-33.669 33.696-33.669 25.313 0 42.038 16.725 42.038 33.669 0 16.848-16.725 33.792-42.038 33.792zm0 0zm185.126 0c-16.603 0-33.451-16.971-33.451-33.792 0-16.944 16.848-33.669 33.451-33.669 25.231 0 42.257 16.725 42.257 33.669 0 16.848-16.998 33.792-42.257 33.792zm0 0z" horiz-adv-x="1024"/><glyph glyph-name="qq1" unicode="" d="M115.413 92.841c22.43-7.581 46.927-2.973 68.962 13.135.572-.886 1.123-1.752 1.694-2.619-37.632-22.961-58.624-55.02-58.624-90.762 0-73.511 86.47-126.858 205.627-126.858 63.193 0 121.758 16.404 159.39 44.288 12.23-.689 23.138-.689 35.505-.02 37.632-27.864 96.177-44.268 159.37-44.268 119.138 0 205.646 53.347 205.646 126.858 0 35.663-20.913 67.624-58.387 90.605a99.888 99.888 0 011.713 2.638c21.977-15.99 46.316-20.618 68.766-13.016 67.17 22.823 70.833 140.012 40.192 238.69-16.266 52.342-46.16 93.361-71.07 120.655.295 3.78.453 7.542.453 11.343 0 28.947-7.582 57.029-22.528 83.672v.374c0 190.327-153.265 345.187-341.642 345.187-188.396 0-341.66-154.86-341.66-345.187v-1.22c-14.633-26.388-22.057-54.213-22.057-82.807 0-3.446.118-6.931.394-10.476-25.226-27.451-55.473-68.785-71.857-121.54-30.66-98.718-26.998-215.868 40.113-238.672zm7.956 223.725c15.242 49.132 45.45 86.96 68.096 110.02a25.196 25.196 0 016.892 21.564c-.827 5.317-1.26 10.397-1.26 15.34 0 21.681 6.301 43.047 18.688 63.429a25.488 25.488 0 013.623 14.828 79.882 79.882 0 00-.236 5.79c0 162.56 130.678 294.813 291.288 294.813s291.29-132.253 291.29-294.813a74.46 74.46 0 00-.198-5.16 25.277 25.277 0 013.683-14.828c12.642-20.559 19.042-42.102 19.042-64.04 0-5.159-.453-10.377-1.359-15.93-1.339-7.917 1.221-15.951 6.833-21.721 22.37-22.902 52.264-60.475 67.407-109.292 26.96-86.784 17.507-167.286-8.21-176.03-13.333-4.51-29.126 9.708-38.953 21.445-5.336 6.42-13.41 9.807-21.937 8.881a25.137 25.137 0 01-19.594-13.233 324.714 324.714 0 00-31.252-47.97 25.242 25.242 0 01-4.549-21.918 25.215 25.215 0 0114.69-16.876c35.152-14.651 55.277-35.88 55.277-58.25 0-42.181-69.65-76.485-155.274-76.485-55.512 0-107.185 14.828-134.813 38.715a25.174 25.174 0 01-16.463 6.124c-.61 0-1.26-.02-1.87-.078-17.389-1.3-30.957-1.28-47.853.02-6.932.61-13.35-1.675-18.393-6.046-27.667-23.907-79.34-38.735-134.872-38.735-85.603 0-155.254 34.304-155.254 76.485 0 22.45 20.243 43.737 55.512 58.368 7.286 3.033 12.721 9.236 14.71 16.876a25.113 25.113 0 01-4.51 21.918c-11.874 15.183-22.37 31.35-31.23 48.049a25.163 25.163 0 01-19.634 13.253c-8.468.886-16.58-2.462-21.957-8.881-9.886-11.835-25.522-26.349-39.11-21.622-25.776 8.704-35.19 89.186-8.25 175.99z" horiz-adv-x="1024"/><glyph glyph-name="qiehuanzuhu" unicode="" d="M999.585 421.337L801.69 611.86c-15.831 15.247-39.579 15.247-55.41 0-15.831-15.238-15.831-38.103 0-53.35l130.607-125.742h-379.96c-23.748 0-39.58-15.238-39.58-38.103s15.832-38.103 39.58-38.103h379.96L746.288 230.82c-15.831-15.248-15.831-38.113 0-53.35 7.917-7.63 15.832-11.433 27.7-11.433 11.88 0 19.795 3.814 27.711 11.432L999.595 371.8s0 3.814 3.963 3.814c11.869 11.433 11.869 34.289-3.963 45.722zM892.716 122.602c-23.747 0-39.579-15.247-39.579-38.103V8.283c0-22.856-15.831-38.103-39.579-38.103H140.712c-23.748 0-39.58 15.247-39.58 38.103v762.101c0 22.856 15.832 38.103 39.58 38.103h672.846c23.748 0 39.58-15.247 39.58-38.103v-76.216c0-22.856 15.83-38.103 39.578-38.103s39.58 15.248 39.58 38.103v76.216c0 64.774-51.447 114.31-118.738 114.31H140.712c-67.28 0-118.738-49.536-118.738-114.31V8.284c0-64.774 51.46-114.31 118.738-114.31h672.846c67.29 0 118.738 49.536 118.738 114.31v76.215c0 22.857-15.832 38.103-39.58 38.103z" horiz-adv-x="1024"/><glyph glyph-name="jishufuwu" unicode="" d="M889.215 223.982c-9.331 0-18.662-.993-27.795-2.978L720.46 390.75l140.96 169.747c68.693-15.287 136.591 27.795 152.077 96.289 15.287 68.693-27.795 136.591-96.289 152.077s-136.591-27.795-152.077-96.29c-11.912-53.206 11.316-108.002 57.773-136.392L694.85 421.721 543.567 604.174c-13.5 16.28-37.722 18.464-53.803 4.964-1.787-1.589-3.573-3.177-4.963-4.964L333.518 421.721 205.463 575.982c59.958 36.53 79.017 114.952 42.487 174.909-36.53 59.957-114.952 79.017-174.909 42.486-59.957-36.53-79.016-114.95-42.486-174.908 28.39-46.457 83.186-69.884 136.393-57.972L307.907 390.75 166.551 221.004C97.858 236.29 29.959 193.209 14.474 124.516S42.268-12.076 110.96-27.561 247.553.234 263.038 68.926c11.912 53.208-11.316 108.003-57.773 136.393L333.319 359.58l85.37-102.84c-46.457-52.81-41.295-133.018 11.515-179.475 52.81-46.457 133.018-41.295 179.475 11.515 42.288 48.045 42.288 119.914 0 167.96l85.37 102.84 128.054-154.26c-59.759-36.73-78.62-114.952-42.09-174.71 36.73-59.76 114.952-78.62 174.71-42.09s78.62 114.951 42.09 174.71c-23.229 37.92-64.325 60.752-108.598 60.752zm0 547.954c48.244 0 87.553-39.112 87.553-87.355s-39.11-87.554-87.355-87.554-87.553 39.111-87.553 87.355v.199c0 48.243 39.111 87.355 87.355 87.355zM51.4 684.58c0 48.243 39.111 87.553 87.553 87.553 48.244 0 87.554-39.111 87.554-87.553 0-48.244-39.111-87.554-87.554-87.554h-.198c-48.244.199-87.355 39.31-87.355 87.554zM138.756 9.366c-48.244 0-87.554 39.111-87.554 87.554s39.112 87.553 87.554 87.553 87.553-39.111 87.553-87.553C226.111 48.477 187 9.366 138.756 9.366zm375.23 76.039c-48.244 0-87.554 39.11-87.554 87.553s39.111 87.554 87.553 87.554c48.244 0 87.554-39.111 87.554-87.554-.199-48.442-39.31-87.553-87.554-87.553zm64.92 196.747c-40.104 23.824-89.936 23.824-129.841 0L358.93 390.75l155.055 186.82L669.04 390.75l-90.134-108.598zM889.215 9.366c-48.244 0-87.554 39.111-87.554 87.554s39.111 87.553 87.554 87.553 87.553-39.111 87.553-87.553c-.198-48.443-39.31-87.554-87.553-87.554z" horiz-adv-x="1024"/><glyph glyph-name="xiexian" unicode="" d="M606.94 753.957c-15.653 3.95-31.598-5.413-35.548-21.066L395.849 43.886c-4.096-15.653 5.266-31.598 20.919-35.694s31.598 5.266 35.694 20.919c0 .146 0 .146.146.292L628.151 718.41c3.95 15.653-5.559 31.598-21.212 35.548z" horiz-adv-x="1024"/><glyph glyph-name="youtong-xuanzhong" unicode="" d="M832.534 653.301c41.084 0 74.503 31.19 74.503 69.531v35.505c0 85.405-248.948 98.161-397.347 98.161s-397.348-12.756-397.348-98.16v-35.506c0-38.343 33.42-69.53 74.503-69.53h24.834V112.477c0-6.73-2.607-13.06-7.324-17.801-4.68-4.717-10.901-7.312-17.51-7.312h-49.669c-13.714 0-24.834-11.119-24.834-24.834V-62.368c0-13.714 11.12-24.834 24.834-24.834h745.026c13.714 0 24.834 11.12 24.834 24.834V62.531c0 13.714-11.119 24.834-24.834 24.834h-49.669c-6.609 0-12.841 2.595-17.51 7.3-4.729 4.742-7.324 11.071-7.324 17.813v540.823h24.835zM683.523 481.674c0-26.842-20.085-48.604-44.862-48.604H380.706c-24.777 0-44.863 21.762-44.863 48.604v52.656c0 26.845 20.086 48.604 44.863 48.604H638.66c24.776 0 44.862-21.76 44.862-48.604v-52.656z" horiz-adv-x="1024"/><glyph glyph-name="jiantou" unicode="" d="M676.474 529.92c-7.68 7.68-7.68 20.48 0 28.16s20.48 7.68 28.16 0l160-160c7.68-7.68 7.68-20.48 0-28.16l-160-160c-7.68-7.68-20.48-7.68-28.16 0s-7.68 20.48 0 28.16l125.768 125.757H173.763c-11.203 0-20.163 8.96-20.163 20.163s8.96 20.163 20.163 20.163h628.798L676.476 529.92z" horiz-adv-x="1024"/><glyph glyph-name="tuanduihezuo" unicode="" d="M858.73 85.44c-48.807 0-88.517 40.21-88.517 89.634 0 49.429 39.71 89.642 88.517 89.642 48.804 0 88.509-40.209 88.509-89.633 0-49.433-39.71-89.642-88.509-89.642zm0 134.275c-23.996 0-43.52-20.028-43.52-44.646 0-24.613 19.524-44.636 43.52-44.636 23.993 0 43.512 20.028 43.512 44.645 0 24.614-19.52 44.637-43.512 44.637zM518.52 645.311c-48.803 0-88.508 40.205-88.508 89.624 0 49.43 39.705 89.643 88.508 89.643 48.808 0 88.513-40.21 88.513-89.63 0-49.428-39.705-89.637-88.513-89.637zm0 134.27c-23.997 0-43.512-20.028-43.512-44.646 0-24.608 19.52-44.627 43.512-44.627 23.997 0 43.516 20.028 43.516 44.64 0 24.61-19.52 44.633-43.516 44.633zM182.26 90.165c-48.803 0-88.508 40.21-88.508 89.634 0 49.428 39.705 89.642 88.508 89.642 48.804 0 88.504-40.21 88.504-89.633 0-49.43-39.7-89.643-88.504-89.643zm0 134.28c-23.996 0-43.512-20.029-43.512-44.646 0-24.614 19.52-44.637 43.512-44.637s43.507 20.028 43.507 44.646c0 24.613-19.515 44.636-43.507 44.636zm-58.806 76.583a22.498 22.498 0 00-22.413 20.865 428.07 428.07 0 00-1.12 30.945c0 150.725 81.579 290.498 212.901 364.77a420.363 420.363 0 0033.082 16.819 22.503 22.503 0 0018.588-40.978 374.642 374.642 0 01-29.518-15.002C217.74 612.135 144.918 487.373 144.918 352.833c0-9.251.337-18.557 1.003-27.673a22.498 22.498 0 00-22.467-24.132zm395.26-366.983c-66.051 0-129.267 14.943-187.888 44.42a419.936 419.936 0 00-71.599 45.636 22.494 22.494 0 1027.893 35.3 375.19 375.19 0 0163.914-40.735c52.3-26.296 108.711-39.629 167.68-39.629 58.779 0 115.033 13.247 167.193 39.386a374.696 374.696 0 0163.05 39.925 22.507 22.507 0 0031.587-3.847 22.507 22.507 0 00-3.847-31.588 420.133 420.133 0 00-70.631-44.722c-58.473-29.293-121.509-44.146-187.353-44.146zm395.322 368.068a22.498 22.498 0 00-22.462 24.1c.62 8.684.931 17.639.931 26.616 0 137.374-75.104 263.405-196.01 328.902a372.392 372.392 0 01-25.765 12.703 22.498 22.498 0 0018.31 41.104 417.222 417.222 0 0028.896-14.241c135.43-73.376 219.566-214.562 219.566-368.468 0-10.035-.351-20.069-1.044-29.815a22.507 22.507 0 00-22.422-20.901z" horiz-adv-x="1024"/><glyph glyph-name="jiantou2" unicode="" d="M128 416h645.6L530.4 658.4 576 704l274.4-274.4L896 384l-45.6-45.6L576 64l-45.6 45.6L773.6 352H128v64z" horiz-adv-x="1024"/><glyph glyph-name="yonghujiegou" unicode="" d="M542.583 428.783a14.684 14.684 0 00-14.745 14.746V570.23a14.684 14.684 0 01-14.746 14.746h-13.107a14.684 14.684 0 01-14.746-14.746v-126.7a14.684 14.684 0 00-14.745-14.746H130.253a14.684 14.684 0 01-14.746-14.746V199.953a14.684 14.684 0 0114.746-14.746h16.93a14.684 14.684 0 0114.746 14.746l.546 170.394a14.684 14.684 0 0014.745 14.745h675.567a14.684 14.684 0 0014.746-14.745l-.546-170.394a14.684 14.684 0 0114.745-14.746h15.838a14.684 14.684 0 0114.746 14.746l.546 180.77v32.768a14.684 14.684 0 01-14.746 14.746l-355.533.546zM512 553.847c-74.274 0-134.349 60.075-134.349 134.35S437.726 822.544 512 822.544s134.349-60.075 134.349-134.349c0-73.728-60.621-134.349-134.349-134.349zm0 233.746c-55.16 0-99.396-44.783-99.396-99.397 0-55.16 44.783-99.396 99.396-99.396 55.16 0 99.396 44.783 99.396 99.396S566.613 787.593 512 787.593zM136.26 215.79c-74.274 0-134.349-60.075-134.349-134.349 0-74.274 60.075-134.349 134.35-134.349 74.273 0 134.348 60.075 134.348 134.35-.546 74.273-60.075 134.348-134.349 134.348zm0-233.199c-55.16 0-99.396 44.783-99.396 99.396 0 55.16 44.783 99.397 99.396 99.397 55.16 0 99.397-44.783 99.397-99.397s-44.783-99.396-99.397-99.396zM891.017 215.79c-74.275 0-134.35-60.075-134.35-134.349 0-74.274 60.075-134.349 134.35-134.349 74.274 0 134.348 60.075 134.348 134.35 0 74.273-60.074 134.348-134.348 134.348zm0-233.199c-55.16 0-99.397 44.783-99.397 99.396 0 55.16 44.783 99.397 99.397 99.397 55.159 0 99.396-44.783 99.396-99.397s-44.237-99.396-99.396-99.396z" horiz-adv-x="1024"/><glyph glyph-name="earth" unicode="" d="M496.262 821.112h28.956c50.249-2.333 100.312-12.065 147.023-30.997 97.401-38.538 179.602-113.687 226.92-207.117 30.078-58.553 46-124.052 47.409-189.806v-15.61c-1.39-64.907-16.884-129.552-46.233-187.531-28.583-57.103-70.047-107.672-120.208-147.182C728.806 2.392 668.24-26.326 604.359-40.23c-25.945-5.852-52.466-8.576-78.97-10.16h-28.986c-34.746 1.837-69.417 6.519-102.919 16.067-81.13 22.484-155.205 69.345-210.53 132.765-38.912 44.273-68.617 96.619-86.78 152.7-13.295 40.784-20.069 83.562-21.142 126.42v15.578c1.55 79.56 24.954 158.602 67.848 225.688 45.483 71.677 112.296 129.666 189.867 164.238 51.324 23.34 107.29 35.51 163.515 38.046zm-83.186-92.953c-27.608-34.693-45.636-75.817-60.274-117.382 20.544-5.16 41.634-7.404 62.54-10.556 25.921-2.673 51.915-5.035 78.012-5.24-.02 63.201.015 126.4-.02 189.62-33.174-6.995-59.85-30.467-80.258-56.442zm115.17-133.163c35.27.632 70.527 3.56 105.37 9.208a308.657 308.657 0 0135.183 6.606c-17.122 48.65-39.184 97.091-75.374 134.676-17.687 18.538-39.742 33.735-65.125 39.116-.102-63.204-.014-126.405-.055-189.606zM378.641 763.868c-61.62-21.48-117.83-58.33-162.07-106.313 32.359-17.093 67.032-29.724 102.438-38.796 18.489 55.728 44.43 110.845 86.22 153.007-9.091-1.787-17.824-4.953-26.588-7.898zM616.2 772.02c8.697-8.017 15.693-17.6 23.287-26.603 28.48-38.042 48.397-81.792 63.186-126.761 35.387 9.227 69.962 21.925 102.457 38.79-50.59 54.83-116.774 95.375-188.93 114.574zM193.333 630.3c-50.08-65.004-79.798-145.481-82.983-227.545 58.08.102 116.162.035 174.238.035 1.122 61.484 9.008 122.894 24.478 182.44-40.122 10.547-79.286 25.192-115.733 45.07zm519.195-45.071c15.473-59.545 23.354-120.957 24.463-182.422 58.114.015 116.226 0 174.34 0-3.417 82.044-32.917 162.57-83.137 227.527-36.356-20.015-75.612-34.454-115.666-45.105zM319.417 402.945c57.98-.306 115.958-.053 173.932-.137v157.33c-50.467.934-100.974 6.179-150.318 16.987-14.999-56.802-22.32-115.491-23.614-174.18zm208.828 157.208c0-52.46 0-104.903.02-157.345 57.98.102 115.954-.189 173.932.15-1.308 58.695-8.63 117.383-23.628 174.2-49.328-10.874-99.85-16.066-150.324-17.005zm-417.927-192.22c3.267-82.064 32.923-162.542 83.034-227.545 36.409 19.932 75.627 34.482 115.716 45.104-15.489 59.54-23.302 120.97-24.512 182.44-58.076-.033-116.157-.033-174.238 0zm209.12-.136c1.293-58.709 8.525-117.47 23.674-174.269 49.282 10.997 99.803 16.068 150.222 17.04.02 52.442.02 104.904.02 157.345-57.979-.083-115.957.155-173.917-.116zm208.807.116v-157.33c50.508-.919 101.013-6.228 150.378-16.97 14.774 56.902 22.588 115.61 23.357 174.387-57.91-.204-115.822-.04-173.734-.088zm208.732 0c-1.02-61.464-9.008-122.875-24.43-182.42 40.07-10.569 79.274-25.125 115.667-45.091 50.214 64.94 79.701 145.467 83.118 227.496-58.114.035-116.245.001-174.355.015zm-384.14-207.886c16.966-48.765 39.198-97.24 75.407-134.86 17.667-18.502 39.73-33.686 65.09-39.029.054 63.182 0 126.381.02 189.582-47.17-.932-94.372-5.736-140.518-15.693zm175.408 15.713c.02-63.2-.033-126.42.04-189.62 33.102 6.996 59.762 30.385 80.137 56.327 27.663 34.74 45.806 75.913 60.362 117.581-21.158 5.11-42.797 7.575-64.294 10.69-25.363 2.469-50.744 4.866-76.245 5.022zm-311.74-62.485c50.57-54.79 116.72-95.389 188.86-114.505-41.79 42.266-67.886 97.382-86.341 153.226-35.489-8.949-69.992-21.954-102.52-38.721zM702.64 152.01C684.069 96.13 658.027 40.947 616.149-1.371 688.24 17.914 754.44 58.357 805.03 113.166c-32.327 17.124-67.018 29.656-102.39 38.845zm0 0" horiz-adv-x="1024"/><glyph glyph-name="huatong" unicode="" d="M512.05 770.19c63.033 0 114.253-52.462 114.253-116.984l.248-275.708c0-64.472-51.27-116.934-114.253-116.934-62.984 0-114.204 52.462-114.204 116.984l-.248 275.658c0 64.522 51.22 116.983 114.154 116.983zm0 34.692c-81.794 0-148.054-67.897-148.054-151.676l.199-275.708c0-83.68 66.309-151.577 148.103-151.577S660.4 293.818 660.4 377.498l-.248 275.708c0 83.78-66.26 151.676-148.103 151.676zM512 122.586c-136.638 0-247.765 113.807-247.765 253.671v139.12c0 10.72 8.438 19.356 18.86 19.356 10.473 0 18.96-8.636 18.96-19.356v-139.12c0-118.522 94.153-215.007 209.945-215.007s209.945 96.485 209.945 215.007v139.12c0 10.72 8.437 19.356 18.91 19.356 10.423 0 18.91-8.636 18.91-19.356v-139.12c0-139.864-111.177-253.67-247.765-253.67zm-18.86 19.357h37.72V-22.539h-37.72v164.482zM646.653-32.415H377.347a19.108 19.108 0 00-18.86 19.356c0 10.671 8.438 19.357 18.86 19.357h269.306c10.422 0 18.86-8.686 18.86-19.357 0-10.72-8.438-19.356-18.86-19.356z" horiz-adv-x="1024"/><glyph glyph-name="bianji" unicode="" d="M358.166 341.375c-.533-.68-1.066-1.391-1.304-2.251l-41.104-150.7c-2.4-8.773.06-18.226 6.55-24.893 4.86-4.742 11.262-7.35 18.078-7.35 2.252 0 4.505.266 6.727.86l149.631 40.808c.238 0 .357-.207.534-.207 1.718 0 3.409.622 4.684 1.928l400.114 400.054c11.883 11.898 18.404 28.11 18.404 45.743 0 19.989-8.476 39.963-23.324 54.767l-37.787 37.845c-14.816 14.848-34.822 23.339-54.797 23.339-17.632 0-33.843-6.521-45.758-18.39l-400.056-400.16c-.413-.384-.295-.948-.592-1.393m504.759 297.427l-39.742-39.713-64.429 65.451 39.18 39.18c6.194 6.222 18.195 5.318 25.31-1.823l37.812-37.846c3.944-3.941 6.195-9.186 6.195-14.372-.027-4.254-1.54-8.107-4.326-10.877m-433.603-303.71l288.713 288.729 64.46-65.496-288.18-288.164-64.993 64.931zM376.718 218.03l20.864 76.58 55.656-55.658-76.52-20.922zm511.547 262.234c-15.145 0-27.563-12.313-27.62-27.665V79.617c0-19.56-15.886-35.445-35.476-35.445H194.221c-19.56 0-35.505 15.884-35.505 35.445v608.78c0 19.577 15.945 35.476 35.505 35.476h406.367c15.232 0 27.593 12.372 27.593 27.606 0 15.203-12.361 27.59-27.593 27.59H190.013c-47.684 0-86.493-38.778-86.493-86.492V75.407c0-47.713 38.81-86.477 86.493-86.477h639.334c47.716 0 86.51 38.764 86.51 86.478v377.37c-.063 15.173-12.448 27.486-27.592 27.486" horiz-adv-x="1024"/><glyph glyph-name="fanhui" unicode="" d="M475.591 595.627v125.155c-11.378 52.338-54.613 20.48-54.613 20.48L120.604 484.124c-65.99-45.51-4.55-79.644-4.55-79.644l295.822-254.862c59.164-43.236 63.715 22.755 63.715 22.755v116.054C775.964 381.724 898.844 8.533 898.844 8.533c11.378-20.48 18.205 0 18.205 0C1033.102 568.32 475.59 595.627 475.59 595.627z" horiz-adv-x="1024"/><glyph glyph-name="dianying" unicode="" d="M702.875 288.563c52.594 0 95.438 42.843 95.438 95.437 0 52.594-42.844 95.438-95.438 95.438S607.437 436.594 607.437 384s42.844-95.438 95.438-95.438zm0 152.718c31.594 0 57.281-25.687 57.281-57.281s-25.687-57.281-57.281-57.281-57.281 25.687-57.281 57.281 25.781 57.281 57.281 57.281zM512 97.594c52.594 0 95.438 42.844 95.438 95.437S564.593 288.47 512 288.47s-95.438-42.844-95.438-95.438S459.406 97.594 512 97.594zm0 152.812c31.594 0 57.281-25.687 57.281-57.281S543.594 135.844 512 135.844s-57.281 25.687-57.281 57.281 25.687 57.281 57.281 57.281zm-2.25 229.031H512c51.563 0 94.219 41.344 95.438 93.188 1.218 52.594-40.594 96.469-93.188 97.688-25.5.656-49.688-8.813-68.156-26.344-18.469-17.625-28.969-41.344-29.531-66.844-.563-25.5 8.812-49.688 26.343-68.156s41.344-28.875 66.844-29.531zm-37.313 136.875c10.782 10.22 24.75 15.844 39.47 15.844h1.406c31.593-.75 56.625-27 55.875-58.593-.75-31.594-27-56.625-58.594-55.875-15.281.375-29.531 6.656-40.125 17.718S454.25 561 454.625 576.281c.469 15.282 6.75 29.532 17.813 40.032zM321.125 479.438c-52.594 0-95.438-42.843-95.438-95.437 0-52.594 42.844-95.438 95.438-95.438s95.438 42.844 95.438 95.438-42.844 95.438-95.438 95.438zm0-152.718c-31.594 0-57.281 25.687-57.281 57.281s25.687 57.281 57.281 57.281 57.281-25.687 57.281-57.281-25.781-57.281-57.281-57.281zM836.375 2.438H687.781C831.97 69 932 214.78 932 384c0 231.938-188.063 420-420 420S92 615.937 92 384 280.063-36 512-36h324.375c10.594 0 19.219 8.625 19.219 19.219s-8.625 19.218-19.219 19.218zM242 114c-35.063 35.063-62.625 75.938-81.844 121.406-19.875 47.063-30 97.031-30 148.594s10.125 101.531 30 148.594C179.375 578.062 206.937 618.937 242 654s75.938 62.625 121.406 81.844c47.063 19.875 97.031 30 148.594 30s101.531-10.125 148.594-30C706.062 716.625 746.937 689.062 782 654c35.063-35.063 62.625-75.938 81.844-121.406 19.875-47.063 30-97.032 30-148.594s-10.125-101.531-30-148.594C844.625 189.937 817.062 149.062 782 114c-35.063-35.063-75.938-62.625-121.406-81.844-42.75-18.093-87.938-28.031-134.438-29.718H512c-.938 0-1.969-.094-2.906-.282-50.531.375-99.563 10.406-145.781 30C317.938 51.375 277.063 78.938 242 114z" horiz-adv-x="1024"/><glyph glyph-name="chenggong1" unicode="" d="M512-128a512 512 0 100 1024 512 512 0 000-1024zm-49.59 377.198L315.976 397.385l-96.548-92.233c70.217-37.815 168.594-106.789 252.854-213.723 59.539 111.908 243.054 340.845 332.288 361.325-14.409 57.71-22.528 166.035 0 223.817-183.002-120.685-342.16-427.373-342.16-427.373z" horiz-adv-x="1024"/><glyph glyph-name="buzhou4" unicode="" d="M14.848 384a497.152 497.152 0 11994.304 0 497.152 497.152 0 11-994.304 0zm697.344-153.6h-70.656V102.912H530.432V230.4H273.408v77.312l246.784 378.88h121.344V317.44h70.656V230.4zM529.92 317.952V509.44c0 16.384.512 35.328 1.536 56.32h-2.048c-2.048-4.608-4.608-11.264-7.68-18.944-3.072-8.192-8.192-16.896-14.336-26.624L376.32 317.952h153.6z" horiz-adv-x="1024"/><glyph glyph-name="buzhou1" unicode="" d="M14.848 384a497.152 497.152 0 11994.304 0 497.152 497.152 0 11-994.304 0zm708.096-281.088H358.4v96.768h121.856v373.76l-125.44-28.16v99.84l247.296 52.224V199.68h120.832v-96.768z" horiz-adv-x="1024"/><glyph glyph-name="buzhou5" unicode="" d="M14.848 384a497.152 497.152 0 11994.304 0 497.152 497.152 0 11-994.304 0zm339.968-165.888c40.448-25.088 82.944-37.376 126.976-37.376 34.304 0 61.44 8.192 81.408 25.088 19.968 16.896 30.208 39.936 30.208 69.632 0 60.416-41.984 90.624-125.44 90.624-25.088 0-56.832-2.048-95.744-6.656v322.56H691.2V581.632H477.184v-122.88c14.336 1.536 30.72 2.56 48.64 2.56 58.368 0 105.472-15.36 139.776-46.592 34.816-31.232 52.224-73.728 52.224-128 0-60.928-20.48-109.056-60.928-144.896s-94.72-53.76-161.792-53.76c-56.32 0-102.912 8.192-139.776 25.088v104.96z" horiz-adv-x="1024"/><glyph glyph-name="buzhou2" unicode="" d="M14.848 384a497.152 497.152 0 11994.304 0 497.152 497.152 0 11-994.304 0zm698.88-281.088H332.8v95.744l167.936 161.28c35.328 33.792 59.904 61.952 73.728 84.992 14.336 23.04 20.992 46.592 20.992 71.168 0 55.808-29.696 83.456-89.6 83.456-50.176 0-98.304-19.968-145.408-60.416v108.032c50.176 33.28 107.008 49.664 170.496 49.664 57.344 0 103.424-14.848 136.704-44.032 33.792-29.184 50.688-69.632 50.688-121.856 0-68.608-41.472-140.288-124.416-215.04L472.064 206.336v-2.048h241.152V102.912z" horiz-adv-x="1024"/><glyph glyph-name="buzhou3" unicode="" d="M14.848 384a497.152 497.152 0 11994.304 0 497.152 497.152 0 11-994.304 0zM348.16 229.888c38.912-29.184 84.48-43.52 136.704-43.52 32.768 0 58.88 7.168 78.336 22.016 19.456 14.336 29.184 35.328 29.184 62.464 0 27.648-11.264 48.64-34.304 63.488-23.04 14.336-55.296 22.016-96.768 22.016h-52.224v93.184h48.128c78.336 0 117.76 26.624 117.76 79.36 0 49.664-30.208 74.752-90.112 74.752-39.424 0-77.312-12.8-114.176-38.4V665.6c40.448 20.992 87.552 31.232 142.336 31.232 55.296 0 100.352-12.8 134.656-38.4 34.304-25.6 51.712-60.928 51.712-105.984 0-76.288-38.912-124.416-116.224-143.872v-2.048c40.96-4.608 73.216-19.456 97.792-44.544 24.576-25.088 36.352-55.808 36.352-92.16 0-55.808-20.48-98.816-60.928-130.048-40.448-31.232-94.72-46.592-162.304-46.592-59.904 0-108.544 9.728-145.408 29.696v107.008z" horiz-adv-x="1024"/><glyph glyph-name="buzhou6" unicode="" d="M14.848 384a497.152 497.152 0 11994.304 0 497.152 497.152 0 11-994.304 0zM680.96 572.928c-29.696 16.896-61.952 25.088-96.768 25.088-45.056 0-80.896-17.92-108.032-53.248-27.136-35.328-40.448-80.896-40.448-137.216h2.048c28.16 42.496 69.12 64 123.904 64 49.152 0 88.064-16.896 116.736-50.176 28.672-33.792 43.008-77.312 43.008-131.072 0-58.88-18.944-107.52-56.32-145.92S579.584 87.04 521.216 87.04c-67.072 0-118.272 24.064-153.6 72.192-35.84 48.128-53.248 114.176-53.248 198.656 0 98.816 23.04 179.2 69.12 240.64C429.568 660.48 493.568 691.2 576 691.2c44.032 0 78.848-5.12 104.448-15.872v-102.4zM439.808 289.792c0-30.208 7.68-55.808 22.528-76.8 14.848-20.992 34.816-31.744 59.392-31.744 25.088 0 44.544 9.728 58.88 29.184 14.336 19.456 21.504 43.52 21.504 72.704 0 65.536-27.136 98.304-80.896 98.304-24.576 0-44.032-8.704-58.88-26.112-15.36-17.408-22.528-39.424-22.528-65.536z" horiz-adv-x="1024"/><glyph glyph-name="shouye" unicode="" d="M718.1-44.5H303.5c-86.3 0-156.6 70.2-156.6 156.6v310.6l-29.8-27.6c-9.7-9-24.8-8.4-33.8 1.2-9 9.6-8.6 24.7.9 33.8l70.1 66.8c2.1 2 4.6 3.6 7.2 4.7l304.7 281.8c12.6 11.7 29.1 18.1 46.3 18.1 17.2 0 33.6-6.4 46.2-18.1l383.6-354.3c9.7-9 10.3-24.1 1.5-33.8-8.9-9.8-24-10.5-33.8-1.7l-35.4 31.9V112c.1-86.3-70.1-156.5-156.5-156.5zM195 467.1v-355c0-28.9 11.3-56.1 31.9-76.7 20.6-20.6 47.8-31.9 76.7-31.9h414.6c28.9 0 56.1 11.3 76.7 31.9 20.6 20.6 31.9 47.8 31.9 76.7v358.7L526.3 748.2c-7.7 7.1-19.7 7.1-27.4 0L195 467.1zM624.2-44.5H398c-19.9 0-36 16.1-36 36v302.4c0 19.9 16.1 36 36 36h226.2c19.9 0 36-16.1 36-36V-8.5c0-19.9-16.1-36-36-36zM410 3.5h202.2v278.4H410V3.5z" horiz-adv-x="1024"/><glyph glyph-name="fanyi" unicode="" d="M788.2-57.7H232.8c-90.4 0-164 73.6-164 164v555.4c0 90.4 73.6 164 164 164h555.5c90.4 0 164-73.6 164-164V106.2c-.1-90.4-73.6-163.9-164.1-163.9zM232.8 777.7c-64 0-116-52-116-116V106.2c0-64 52-116 116-116h555.5c64 0 116 52 116 116v555.5c0 64-52 116-116 116H232.8zm182-493.3c.3-11.4 1.4-24.4 3.2-38.8-30.5-18.3-55.8-35.5-75.8-51.4L321 223.1c10.5 9.3 15.7 22.5 15.7 39.7v176.8h-56.4v32.5h91.5V254.7c12.7 8.4 27 18.3 43 29.7zM334 618.6c25.3-24.7 49.3-49.3 72.1-74l-31.9-26.2c-20.9 25.9-43.7 51.9-68.4 78l28.2 22.2zm99.8-42.4v30.7h275.9v-30.2c-21.4-35.5-54-66.1-97.7-92 36.2-15.3 79.3-25.4 129.2-30.2-6.8-11.4-13.2-23.2-19.4-35.2-57.6 9.5-106.3 24.8-146 46-42.5-20.1-93.2-36.8-152-50.1-5.9 11.7-12.5 23-19.9 33.8 52.8 7.5 99.2 19.6 139.1 36.3-34.7 24.5-60.5 54.8-77.4 90.9h-31.8zM426.4 302h132.2v55H445.8v30.7h112.8v47.4h35.1v-47.4H718V357H593.7v-55h146v-30.7h-146v-86.6h-35.1v86.6H426.4V302zm242.1 274.2H502.2c17.9-30.2 43.1-55 75.6-74.4 37 20 67.3 44.8 90.7 74.4zm-66.8-399.4h-51.1v86.6H424.2c.5-5.3 1.1-10.9 1.9-16.7l.7-5.2-4.5-2.7c-30.1-18.1-55.3-35.2-74.9-50.8l-6.5-5.2-30.5 41.4 5.4 4.8c8.8 7.8 13 18.8 13 33.7v168.9h-56.4v48.5h107.5V269.8c9.3 6.4 19.5 13.5 30.3 21.2l8.2 5.8V310h132.2v39H437.8v46.7h112.8v47.4h51.1v-47.4H726V349H601.7v-39h146v-46.7h-146v-86.5zm-35.1 16h19.1v86.6h146V294h-146v71H710v14.7H585.7v47.4h-19.1v-47.4H453.8V365h112.8v-71H434.4v-14.7h132.2v-86.5zm-235.1 29.6l12.4-16.8c18.1 13.8 40.1 28.7 65.6 44.2-.8 6.9-1.5 13.5-1.9 19.7-11.4-8-21.9-15.2-31.3-21.5l-12.4-8.3v224.4h-75.5v-16.5h56.4V262.8c-.1-16.5-4.5-30-13.3-40.4zm87.8 183.7l-2.8 5.6c-5.7 11.4-12.2 22.4-19.3 32.9l-7.3 10.6 12.7 1.8c46.2 6.6 87.8 16.8 124 30.5-28.5 22.5-50.7 49.6-66.2 80.7h-34.6v46.7h291.9v-40.4l-1.2-1.9c-19.7-32.6-48.9-61.6-86.8-86.3 32.2-11.8 69.9-19.8 112.2-23.9l12.5-1.2-6.4-10.8c-6.7-11.2-13.1-22.9-19.2-34.7l-2.7-5.2-5.8.9c-56.5 9.3-105.2 24.4-144.9 45-42.1-19.6-92.6-36-150.1-48.9l-6-1.4zm-2.1 36.9c3.8-6.1 7.3-12.3 10.7-18.6 55.5 12.8 104 29 144.3 48.1l3.6 1.7 3.6-1.9c37.5-20 83.8-34.8 137.8-44.2 3.5 6.6 7.1 13.2 10.7 19.7-45.4 5.3-85.4 15.2-119.2 29.5l-14.6 6.2 13.7 8.1c41.6 24.6 73.2 54 93.8 87.4v20H441.8v-14.7h28.7l2.2-4.6c16.3-34.6 41.4-64.2 74.8-87.7l11.8-8.3-13.3-5.6c-37.3-15.7-80.5-27.4-128.8-35.1zm160.3 49.6l-3.9 2.3c-33.5 20-59.9 46-78.3 77.2l-7.1 12.1h196.9l-10.2-13c-24-30.3-55.4-56.1-93.3-76.5l-4.1-2.1zm-60.7 75.6c15.6-22.4 36.1-41.6 61.1-57.2 28.7 16 53.3 35.1 73.3 57.2H516.8zm-143.8-61l-5.1 6.3c-20.7 25.6-43.6 51.7-68 77.6l-6 6.4 40.6 31.8 5-4.9c25.3-24.6 49.6-49.6 72.4-74.3l5.8-6.2-44.7-36.7zm-55.4 88.4c20.5-22 39.8-44.1 57.7-65.8l19.1 15.7c-19.4 20.8-39.9 41.8-61 62.5l-15.8-12.4z" horiz-adv-x="1024"/><glyph glyph-name="guanyuwomen" unicode="" d="M418.1-54.8c-12.4.1-28.7 2.1-45.3 16.3-3.7 3.2-66.7 64.9-197.6 193.2-39.6 38.9-74 72.6-78 76.4-6.3 5.7-20 21.3-24 38.9l-1.2-1.3v207.9c.2 13.1 2.2 28.7 16.3 45.1 2.4 2.6 19.6 20.3 198.6 203.2 36.4 37.1 67.9 69.3 70.9 72.5 8 8.8 27.9 24.9 48.4 25.1h1.7l195.1.1h.1c13.2-.2 28.9-2.2 45.2-16.4 3.5-3 60.2-58.5 186-181.8 45.8-44.9 85.5-83.8 89.5-87.6 9-8.1 25.4-28.5 25.1-49v-1.1l-.1-1v-.3l.2.1.1-193.7v-.1c-.1-12.3-2.1-28.5-16.3-45.1l-.1-.1c-3.2-3.7-64.4-66.2-191.9-196.2-39.4-40.2-73.6-75.1-77.6-79.2-6.7-7.5-27.1-25.1-48.2-25.7l.1-.1-197-.1zM399-8.3c7-5.9 12.6-6.5 19.3-6.5h115.5c-.5.9-.9 1.9-1.3 2.7-.6 1.2-1.1 2.3-1.5 3.2-.1.3-.3.6-.4 1l-.3.6c-1.9 4.5-4.1 9.7-6 15.5-.4 1.3-.9 2.8-1.5 4.3-.4 1.2-.9 2.6-1.4 4l-.5 1.5c-5.2 14.8-10.5 30-15.8 44.9l-.3.9c-.4 1.2-.8 2.3-1.2 3.5-.3.9-.6 1.8-.9 2.6-.4 1.2-.9 2.5-1.4 3.8l-.1.4-1.2 3.5c-2.3 6.5-4.7 13.3-7 20.2-1.2 3.3-2.3 6.6-3.5 10-2.2 6.4-4.5 12.8-6.9 19.3l-.2.7-.6 1.7c-7.4 21.1-15.1 42.8-22.4 63.6-5.9 16.7-11.6 32.8-16.7 47.4-18.8 50.8-29.8 58.7-77.2 76.3-15.9 5.7-50 17.7-101.6 35.7-5.8-2.1-11.6-4.1-17.2-6.1-8.8-3.1-17.4-6.1-25.6-9h-.1c-32.6-11.4-55.6-19.4-66.3-23.2l-1.3-.4c-.2-.1-.4-.1-.6-.2-.5-.2-.9-.3-1.4-.5l-.4-.1c-1.9-.7-3.6-1.4-5.2-2.1l-1.2-.5c-1.7-.7-3.3-1.5-5-2.3l-.4-.2c-.8-.5-1.7-.9-2.5-1.3l-.4-.2c-1.3-.7-2.3-1.2-3.1-1.7l-.7-.4c-.7-.4-1.3-.8-2-1.2-.9-.6-1.7-1.1-2.5-1.6-.4-.3-.7-.5-1.1-.8-.3-.2-.6-.4-.8-.6l-.9-.7c-.1-.1-.2-.1-.3-.2-.5-.4-.9-.7-1.4-1.1-.3-.2-.7-.6-1.2-1-.3-.3-.6-.5-.9-.8-.3-.2-.5-.5-.8-.8l-.3-.3c-.3-.3-.7-.7-1.2-1.1l-.1-.1c-.1-.2-.3-.3-.4-.4l-.5-.6c-.5-.5-.9-1-1.3-1.5-.2-.3-.5-.6-.8-1l-.1-.2c-.1-.2-.2-.3-.4-.5l-.5-.8-.6-.9-.1-.2-.6-1.2c-.2-.3-.3-.6-.4-.9v-.1c-.9-2.3-1-4.1-1.1-5.7v-.5c.2-3.9 6.7-14.1 11.9-18.7l.6-.6c2.8-2.7 34.6-33.9 78.6-77C278.4 109.6 391.9-1.6 399-8.3zm213.3-6.1c.8-.1 1.4-.2 2-.3 4 .3 14.4 7.1 19.1 12.4l.6.7c2.7 2.8 34.4 35.1 78.1 79.8 73.2 74.7 183.6 187.2 190.4 194.5 5.9 7 6.5 12.6 6.5 19.2v115.6c-.9-.5-1.9-.9-2.9-1.4l-1.3-.6c-.8-.4-1.6-.7-2.4-1.1l-.6-.3c-5-2.1-10-4.2-15.8-6.1-1.5-.5-3.2-1.1-5.1-1.7l-4.2-1.5c-13.2-4.6-33.2-11.7-56.7-20-54.4-19.1-119.7-42.1-166.5-58.6-50.9-18.9-58.8-29.8-76.3-77.1-7.7-21.4-25-71.3-35.6-101.7l2-5.5c3.5-9.9 6.8-19.2 10-28.3 1-2.6 1.8-5.1 2.7-7.6l.6-1.6c.5-1.4.9-2.6 1.4-3.9l.3-.9c2.1-6 4.1-11.7 6-17.2 2.5-7 4.8-13.5 6.8-19.3l1.9-5.4c2-5.7 3.7-10.6 5.1-14.7.6-1.7 1.4-3.7 2-5.7 3.1-8.5 6.6-16 10.3-22.2l.9-1.6c.7-1.2 1.5-2.3 2.2-3.3l.6-.9c.7-.9 1.4-1.9 2.3-3l.4-.5c.1-.1.2-.3.3-.4.6-.7 1.1-1.3 1.5-1.6l.7-.6.6-.7 1-1c.5-.4 1-.8 1.4-1.2.1-.1.3-.2.4-.3l.3-.2c3.4-2.6 6.2-3.5 8.2-3.9l.8-.3zM294.9 384.1c41.8-14.6 70-24.5 84.1-29.6l.2-.1c57.4-21.3 77.6-37 100.9-100.1l.1-.3c5.2-14.6 10.9-30.8 16.8-47.6 4.4-12.3 8.8-25 13.3-37.7 10.3 29.5 23.1 66.3 29.4 83.8l.1.2c21.2 57.3 36.9 77.5 100.1 100.9l.3.1c24.8 8.7 54.7 19.3 85.5 30.1-31.6 11-65.9 23-82.5 29l-.2.1-1 .4c-57.4 21.2-77.6 36.9-100.9 100.1l-.1.3c-5.8 16.6-12.3 35-19.1 54.2-3.6 10.3-7.3 20.8-11 31.3-10.1-28.9-23.1-66.2-29.4-83.7l-.1-.1c-21.2-57.3-36.9-77.5-100.2-100.9l-.4-.1c-25.6-9-55.7-19.6-85.9-30.3zM112 476.3l.1-115.5c.9.4 1.8.9 2.7 1.3l.2.1c1.5.7 3 1.3 4.4 1.9l2.7 1.1c1.6.7 3.3 1.5 5.4 2.3l.8.3c.4.1.8.3 1.2.4.7.3 1.5.5 2.2.8.7.3 1.9.8 3.4 1.3l10.8 3.8c13.2 4.6 32.6 11.4 55.1 19.3 18.5 6.5 39.2 13.8 60.4 21.3 36.7 13 74.6 26.4 106 37.3 51 18.9 58.9 29.9 76.4 77.2 7.5 20.7 24.6 69.7 34.8 99l.8 2.3c-.2.7-.5 1.4-.7 2.1-.9 2.7-1.8 5.3-2.8 8-1.5 4.2-3 8.4-4.4 12.4-.7 2-1.4 4.1-2.1 6.1-1.7 5-3.5 9.9-5.2 14.6l-.1.2c-1.7 5.1-3.5 10-5.1 14.7-1.2 3.4-2.4 6.6-3.5 9.8-7.7 21.5-12.8 36.4-14.7 41.9-3 8.5-6.4 16-10.1 22.2l-.3.4c-.9 1.5-1.8 2.9-2.9 4.6l-.6.8c-.8 1.1-1.7 2.3-2.5 3.3-.3.3-.7.8-1.2 1.4-.5.5-1 1.1-1.6 1.7l-1 1c-.1.1-.3.2-.4.3-.4.3-.8.7-1.1 1l-1.1.7-.9.8-.1.1c-.1.1-.2.1-.3.2-.3.2-.5.3-.8.5l-.1.1-.7.3-1 .7c-.1.1-.3.1-.4.2l-.4.1-.9.4c-.1 0-.2.1-.3.1-.3.1-.6.2-1 .3l-4.8.6c-4.4-.8-13.9-6.9-18.4-12l-.5-.5c-1.3-1.3-25.4-26-71.5-73-71.7-72.6-190.6-194-197.5-201.3-5.7-6.7-6.3-12.2-6.4-19zm542.8-25l1-.3c19.2-6.9 65.1-23 101.3-35.5 9.7 3.4 19.1 6.7 28.3 10l12 4.3c.7.2 1.5.5 2.2.8l.8.3c8.4 3 16.5 5.8 23.9 8.4 12.4 4.4 23 8.1 31.3 11l3.8 1.3c2.9 1 5.3 1.9 7.4 2.6l.4.1c.7.2 1.6.6 2.6 1l1.5.6 1.5.6c1.1.4 2.1.8 2.9 1.1l.4.2.9.4c2.1.9 4 1.7 5.5 2.5l.3.2.9.5c2.1 1.1 3.8 2 5.2 2.8l.7.4c2.2 1.4 3.8 2.3 5 3.2l1 .7c1.1.8 2.1 1.6 2.8 2.2l.1.1c.2.2.5.4.8.7l.3.3c.6.6 1.4 1.2 1.8 1.6l.6.6.3.3c.5.5 1.1 1.1 1.6 1.7.1.1.2.3.3.4l.5.7c.3.4.6.8.9 1.1.3.5.6 1 1 1.5 0 .1.1.2.2.3.2.5.4.9.6 1.3l.3.6.1.3c.1.3.5 1.3.6 1.6v.1c.5 1.7.6 3.2.8 4.6v.4c-.5 4.1-6.8 13.9-12 18.5l-.4.4c-3 2.8-34.6 33.8-90.1 88.2-71.2 69.2-178 173.9-184.7 180-6.9 5.9-12.4 6.5-19.3 6.6H487.2c.4-.8.8-1.6 1.2-2.5.8-1.6 1.5-3.2 2.3-5 2.1-4.9 3.8-9 5.2-13.1l.1-.2.6-1.8c3.3-9.6 10.1-29.1 19.4-55.3l.1-.2c.7-2 1.4-4 2.2-6.2.5-1.5 1.1-2.9 1.6-4.4l1.2-3.4c5.2-14.9 11-31.4 17-48.2l.3-.8c.1-.3.2-.5.3-.8l2.3-6.2v-.3c6.2-17.6 12.5-35.5 18.6-52.9 6.7-19.1 13.2-37.5 19-54.1 18.7-50.5 29.6-58.7 76.2-75.9zm-535.9 44.6l-.3-.3-.1-.1c.2.1.3.3.4.4z" horiz-adv-x="1024"/><glyph glyph-name="kehuzhongxin" unicode="" d="M511.1 344c-116.5 0-211.3 94.8-211.3 211.3s94.8 211.3 211.3 211.3c116.5 0 211.3-94.8 211.3-211.3S627.6 344 511.1 344zm0 374.6c-90 0-163.3-73.3-163.3-163.3S421.1 392 511.1 392s163.3 73.3 163.3 163.3-73.2 163.3-163.3 163.3zM848.6 2.8H175.3c-57.3 0-104 46.7-104 104v6.1c0 101.5 82.5 184 184 184h507.2c104.8 0 190.1-85.3 190.1-190.1 0-57.3-46.6-104-104-104zM255.3 248.9c-75 0-136-61-136-136v-6.1c0-30.9 25.1-56 56-56h673.3c30.9 0 56 25.1 56 56 0 78.3-63.7 142.1-142.1 142.1H255.3z" horiz-adv-x="1024"/><glyph glyph-name="icon-test" unicode="" d="M512 768c-211.7 0-384-172.3-384-384S300.3 0 512 0s384 172.3 384 384-172.3 384-384 384zm0-720c-185.3 0-336 150.7-336 336s150.7 336 336 336 336-150.7 336-336S697.3 48 512 48zm257.8 312c0 1.3-.5 2.4-.7 3.7-.3 1.6-.4 3.2-.9 4.7s-1.4 2.7-2.2 4c-.8 1.3-1.5 2.6-2.6 3.8-1 1.1-2.3 1.9-3.5 2.8-1.2.9-2.4 1.9-3.8 2.6-1.4.7-3 .9-4.5 1.3-1.2.3-2.3 1-3.7 1.1-.4 0-.7-.1-1-.1-.3 0-.6.2-1 .2H278.2c-.7 0-1.2-.3-1.9-.4-.7-.1-1.3.2-2 .1-1-.2-1.8-.7-2.7-1-1.6-.5-3.1-.9-4.5-1.7-1.4-.7-2.6-1.6-3.7-2.5-1.2-1-2.3-1.9-3.3-3.1-1-1.2-1.8-2.4-2.6-3.8-.7-1.3-1.4-2.6-1.9-4.1-.5-1.5-.8-3.1-1-4.7-.1-1-.6-1.8-.6-2.8 0-.7.3-1.2.4-1.9.1-.7-.2-1.3-.1-1.9 26.1-162.6 153.9-234.7 265.3-234.7 3.2 0 6.5.1 9.7.2 110 4.2 226.9 78.9 240.1 236.4 0 .4-.1.7-.1 1 .3.2.5.4.5.8zm-242-190.4c-90-3.1-188.5 47.3-219.9 166.4h410.5c-21.2-117.6-113.7-163.5-190.6-166.4z" horiz-adv-x="1024"/></font>
</defs>
</svg>
