<?xml version="1.0" standalone="no"?>
<!DOCTYPE svg PUBLIC "-//W3C//DTD SVG 1.1//EN" "http://www.w3.org/Graphics/SVG/1.1/DTD/svg11.dtd" >
<!--
2013-9-30: Created.
-->
<svg>
<metadata>
Created by iconfont
</metadata>
<defs>

<font id="iconfont" horiz-adv-x="1024" >
  <font-face
    font-family="iconfont"
    font-weight="500"
    font-stretch="normal"
    units-per-em="1024"
    ascent="896"
    descent="-128"
  />
    <missing-glyph />
    
    <glyph glyph-name="x" unicode="x" horiz-adv-x="1001"
d="M281 543q-27 -1 -53 -1h-83q-18 0 -36.5 -6t-32.5 -18.5t-23 -32t-9 -45.5v-76h912v41q0 16 -0.5 30t-0.5 18q0 13 -5 29t-17 29.5t-31.5 22.5t-49.5 9h-133v-97h-438v97zM955 310v-52q0 -23 0.5 -52t0.5 -58t-10.5 -47.5t-26 -30t-33 -16t-31.5 -4.5q-14 -1 -29.5 -0.5
t-29.5 0.5h-32l-45 128h-439l-44 -128h-29h-34q-20 0 -45 1q-25 0 -41 9.5t-25.5 23t-13.5 29.5t-4 30v167h911zM163 247q-12 0 -21 -8.5t-9 -21.5t9 -21.5t21 -8.5q13 0 22 8.5t9 21.5t-9 21.5t-22 8.5zM316 123q-8 -26 -14 -48q-5 -19 -10.5 -37t-7.5 -25t-3 -15t1 -14.5
t9.5 -10.5t21.5 -4h37h67h81h80h64h36q23 0 34 12t2 38q-5 13 -9.5 30.5t-9.5 34.5q-5 19 -11 39h-368zM336 498v228q0 11 2.5 23t10 21.5t20.5 15.5t34 6h188q31 0 51.5 -14.5t20.5 -52.5v-227h-327z" />
    

    
    <glyph glyph-name="dianhua" unicode="&#58884;" d="M605.323264 812.790784c-2.212864 0.467968-4.405248 0.723968-6.598656 0.8192-19.753984 0.755712-37.037056-12.750848-41.017344-32.152576-2.194432-10.52672-0.149504-21.286912 5.787648-30.301184 5.917696-9.004032 14.98624-15.156224 25.5232-17.3056 84.826112-17.508352 157.858816-67.093504 205.625344-139.616256 47.745024-72.554496 64.391168-159.220736 46.936064-244.045824-2.193408-10.559488-0.149504-21.298176 5.788672-30.290944 5.917696-9.004032 14.98624-15.14496 25.5232-17.327104 2.212864-0.436224 4.44928-0.703488 6.62016-0.80896 8.451072-0.319488 16.623616 1.980416 23.692288 6.62016 9.003008 5.927936 15.1552 15.00672 17.32608 25.53344C965.613568 552.833024 824.231936 767.674368 605.323264 812.790784L605.323264 812.790784zM674.717696 207.32620799999995c2.382848-1.554432 55.5776-35.707904 96.448512-77.683712 15.388672-15.879168 41.166848-42.4448 40.484864-73.2672-0.574464-21.052416-12.45184-42.16832-36.334592-64.454656-5.9392-5.83168-59.133952-55.515136-144.234496-55.515136-23.309312 0-47.255552 3.703808-71.181312 10.985472-25.1392 7.619584-50.704384 19.392512-75.907072 34.929664-99.51232 58.771456-176.313344 134.444032-249.239552 245.440512-125.353984 190.768128-128.95232 354.1504-128.376832 384.941056 0.212992 142.1056 118.564864 198.003712 132.059136 203.921408 18.562048 8.609792 34.782208 12.750848 49.724416 12.750848 7.15264 0 14.007296-0.968704 20.349952-2.906112 13.047808-3.958784 31.163392-14.21824 43.338752-40.592384 16.603136-35.781632 32.313344-87.081984 43.040768-140.786688 11.282432-55.738368-19.966976-71.38304-50.192384-86.50752l-1.19296-0.521216c0 0-53.471232-22.308864-62.87872-26.182656-9.238528-3.852288-14.04928-14.261248-10.899456-23.776256 21.563392-65.327104 54.493184-133.070848 95.192064-195.90656 40.039424-61.827072 87.656448-118.884352 137.678848-165.074944 3.575808-3.257344 8.173568-5.087232 13.028352-5.087232l1.639424 0.084992c5.257216 0.42496 10.217472 3.086336 13.5168 7.3216 8.129536 10.450944 20.603904 25.511936 33.759232 38.038528 24.946688 23.723008 47.509504 35.238912 68.967424 35.238912 5.874688 0 11.708416-0.862208 17.327104-2.576384C656.219136 218.48985600000003 664.925184 213.80710399999998 674.717696 207.32620799999995L674.717696 207.32620799999995zM505.449472 482.312192c-10.558464 2.192384-19.627008 8.323072-25.54368 17.31584-5.960704 9.004032-8.003584 19.775488-5.832704 30.332928 4.0448 19.381248 21.285888 32.898048 41.018368 32.110592 2.193408-0.064512 4.407296-0.329728 6.619136-0.787456 93.553664-19.286016 153.986048-111.135744 134.720512-204.732416-2.1504-10.492928-8.280064-19.550208-17.284096-25.521152-7.088128-4.629504-15.30368-6.918144-23.691264-6.62016-2.171904 0.115712-4.385792 0.362496-6.598656 0.830464-10.579968 2.139136-19.667968 8.312832-25.585664 17.327104-5.917696 8.972288-7.9616 19.710976-5.789696 30.268416 4.980736 24.223744 0.256 48.958464-13.411328 69.669888C550.448128 463.17568 529.650688 477.330432 505.449472 482.312192L505.449472 482.312192zM547.340288 608.581632c-21.75488 4.512768-35.80416 25.851904-31.3344 47.596544 4.001792 19.423232 21.243904 32.951296 40.997888 32.18432 2.169856-0.095232 4.406272-0.351232 6.619136-0.8192 75.71456-15.612928 140.852224-59.845632 183.510016-124.608512 42.59328-64.720896 57.470976-142.063616 41.847808-217.7792-2.171904-10.558464-8.324096-19.647488-17.328128-25.53344-7.087104-4.672512-15.240192-6.960128-23.668736-6.6304-2.194432 0.096256-4.427776 0.362496-6.641664 0.830464-21.711872 4.458496-35.781632 25.808896-31.311872 47.59552 11.260928 54.6304 0.53248 110.485504-30.247936 157.241344C649.003008 565.3913600000001 602.003456 597.330944 547.340288 608.581632z"  horiz-adv-x="1024" />

    
    <glyph glyph-name="password" unicode="&#58954;" d="M811.1 526h-79.8c0 128.3-97.9 226.2-222.9 226.2s-222.9-98-222.9-226.2h-79.8c0 153.9 135.8 306.1 302.7 306.1 166.9-0.1 302.7-152.2 302.7-306.1v0zM858.3 394.8c0 44.1-35.8 79.8-79.8 79.8h-532.9c-44.1 0-79.8-35.8-79.8-79.8v-379c0-44.1 35.8-79.8 79.8-79.8h532.9c44.1 0 79.8 35.8 79.8 79.8v379zM576.1 98.5c0-33.1-26.8-59.9-59.9-59.9h-8.5c-33.1 0-59.9 26.8-59.9 59.9l-0 162.4c0 33.1 26.8 59.9 59.9 59.9h8.5c33.1 0 59.9-26.8 59.9-59.9v-162.4zM576.1 98.5z"  horiz-adv-x="1024" />

    
    <glyph glyph-name="xiangyou" unicode="&#59183;" d="M512 853.333333C251.733333 853.333333 42.666667 644.266667 42.666667 384s209.066667-469.333333 469.333333-469.333333 469.333333 209.066667 469.333333 469.333333S772.266667 853.333333 512 853.333333zM512-42.66666699999996C277.333333-42.66666699999996 85.333333 149.33333300000004 85.333333 384 85.333333 618.666667 277.333333 810.666667 512 810.666667s426.666667-192 426.666667-426.666667C938.666667 149.33333300000004 746.666667-42.66666699999996 512-42.66666699999996zM462.933333 633.6C458.666667 637.866667 454.4 640 448 640c-12.8 0-21.333333-8.533333-21.333333-21.333333 0-6.4 2.133333-10.666667 6.4-14.933333L631.466667 384l-200.533333-219.733333C428.8 160 426.666667 155.73333300000002 426.666667 149.33333300000004c0-12.8 8.533333-21.333333 21.333333-21.333333 6.4 0 10.666667 2.133333 14.933333 6.4l213.333333 234.666667c4.266667 4.266667 6.4 8.533333 6.4 14.933333 0 6.4-2.133333 10.666667-6.4 14.933333L462.933333 633.6z"  horiz-adv-x="1024" />

    
    <glyph glyph-name="iconset0481" unicode="&#59240;" d="M512 853.333333C253.866667 853.333333 42.666667 644.266667 42.666667 384s211.2-469.333333 469.333333-469.333333c260.266667 0 469.333333 209.066667 469.333333 469.333333S772.266667 853.333333 512 853.333333zM512-42.666667C277.333333-42.666667 85.333333 149.333333 85.333333 384 85.333333 618.666667 277.333333 810.666667 512 810.666667c234.666667 0 426.666667-192 426.666667-426.666667C938.666667 149.333333 746.666667-42.666667 512-42.666667zM716.8 401.066667 716.8 401.066667l-4.266667 2.133333c0 0 0 0-2.133333 0l-292.266667 168.533333 0 0C413.866667 573.866667 409.6 576 405.333333 576c-12.8 0-21.333333-8.533333-21.333333-21.333333l0-341.333333c0-12.8 8.533333-21.333333 21.333333-21.333333 4.266667 0 8.533333 2.133333 12.8 4.266667l0 0 292.266667 168.533333c0 0 0 0 2.133333 0l4.266667 2.133333 0 0c4.266667 4.266667 8.533333 10.666667 8.533333 17.066667S721.066667 396.8 716.8 401.066667zM426.666667 249.6 426.666667 518.4 661.333333 384 426.666667 249.6z"  horiz-adv-x="1024" />

    
    <glyph glyph-name="user" unicode="&#59015;" d="M512.027629 479.105055c98.202603 0 178.091094 79.928401 178.091094 178.171935 0 98.247628-79.889515 178.171935-178.091094 178.171935s-178.093141-79.924307-178.093141-178.171935C333.934488 559.033455 413.825027 479.105055 512.027629 479.105055zM751.003396 392.763594c-0.076748 0.022513-0.223081 0.076748-0.296759 0.099261-23.188118 5.662977-94.198405 15.601326-94.198405 15.601326-8.014534 2.468215-16.581654-1.777483-19.465331-9.692756L530.159592 105.37828200000001c-6.16542-16.922415-30.092365-16.922415-36.259832 0L387.016451 398.771425c-2.325975 6.391571-8.355295 10.397814-14.815427 10.397814-1.531889 0-74.543763-10.239202-98.850355-16.288988-66.419735-16.524348-108.315938-81.864496-108.315938-149.9645l0-244.122997c0-36.58115 29.646204-66.242703 66.215074-66.242703l561.498344 0c36.56887 0 66.215074 29.66053 66.215074 66.242703L858.963223 243.73030300000005C858.960153 311.530478 815.425637 371.70292900000004 751.003396 392.763594zM552.336684 414.057573c-4.266164 4.653997-10.503215 6.990205-16.810874 6.990205l-47.053666 0c-6.309706 0-12.548804-2.342348-16.810874-6.990205-6.602372-7.196912-7.564279-17.59882-2.87549-25.722848l25.154913-37.937031-11.775184-99.381451 23.188118-61.71355c2.260483-6.206352 11.034311-6.206352 13.293771 0l23.188118 61.71355-11.775184 99.381451 25.154913 37.937031C559.898917 396.45773 558.939055 406.86066 552.336684 414.057573z"  horiz-adv-x="1024" />

    
    <glyph glyph-name="diamondzuanshi" unicode="&#59129;" d="M932.01875 512.08125L930.078125 510.225 523.30625-32.221874999999955 519.509375-36.018749999999955 517.653125-36.018749999999955C516.3875-37.284374999999955 514.53125-37.875 512-37.875c-2.53125 0-4.3875 0.590625-5.653125 1.85625L504.490625-36.018749999999955 500.69375-32.221874999999955 93.921875 510.225c-1.265625 0-1.85625 0.590625-1.85625 1.85625L92.065625 513.9375C90.715625 515.203125 90.125 516.46875 90.125 517.734375L90.125 519.590625 90.125 523.3875l1.85625 1.85625c0 1.18125 0.590625 2.53125 1.85625 3.796875L93.8375 530.896875l210.9375 210.9375c2.53125 1.18125 4.3875 1.85625 5.653125 1.85625 1.265625 1.18125 3.121875 1.85625 5.653125 1.85625l391.753125 0c2.53125 0 4.3875-0.675 5.653125-1.85625 1.265625 0 2.53125-0.675 3.796875-1.85625l1.85625 0 210.9375-210.9375c1.265625-2.53125 1.85625-4.3875 1.85625-5.653125L933.875 523.3875l0-3.796875 0-1.85625L932.01875 513.9375 932.01875 512.08125zM135.35 504.571875L463.0625 67.59375 304.859375 504.571875 135.35 504.571875zM301.0625 694.753125L141.003125 534.69375 301.0625 534.69375 301.0625 694.753125zM478.08125 715.509375L331.184375 715.509375l0-158.203125L478.08125 715.509375zM336.8375 504.571875L512 22.368749999999977l175.1625 482.11875L336.8375 504.4875zM674 534.69375L512 707.915625 350 534.69375 674 534.69375zM692.815625 715.509375L545.91875 715.509375l146.896875-158.203125L692.815625 715.509375zM560.9375 67.59375l327.7125 436.978125L719.140625 504.571875 560.9375 67.59375zM882.996875 534.69375L722.9375 694.753125l0-160.059375L882.996875 534.69375z"  horiz-adv-x="1025" />

    
    <glyph glyph-name="dianhua2" unicode="&#58957;" d="M767.04-100.58666667c-17.70666667 0-34.34666667 2.77333333-49.28 8.21333334-19.2 5.12-183.25333333 54.18666667-405.54666667 276.58666666C96.64 399.68 42.56 569.28 36.69333333 589.22666667c-10.02666667 25.28-12.05333333 56.10666667-5.54666666 86.72 6.50666667 30.72 21.01333333 58.56 40.74666666 78.29333333L155.73333333 838.08c19.62666667 19.62666667 45.01333333 30.50666667 71.46666667 30.50666667 30.61333333 0 59.41333333-14.61333333 79.14666667-40l122.77333333-158.29333334c20.69333333-26.66666667 23.14666667-70.18666667 5.76-99.2l-59.94666667-99.30666666c5.65333333-18.77333333 25.17333333-65.28 90.88-134.93333334 73.06666667-69.22666667 118.50666667-86.4 133.44-90.34666666l99.84 60.26666666c12.16 7.36 27.94666667 11.41333333 44.37333334 11.41333334 20.69333333 0 40.64-6.18666667 54.72-17.06666667l158.29333333-122.88c23.89333333-18.56 37.97333333-44.48 39.78666667-73.06666667 1.81333333-28.58666667-8.96-56.10666667-30.29333334-77.44l-83.73333333-83.73333333C854.82666667-83.51999999999998 810.66666667-100.58666667 767.04-100.58666667L767.04-100.58666667zM227.09333333 815.6800000000001c-12.26666667 0-24.32-5.33333333-34.02666666-14.93333333l-83.73333334-83.73333334c-25.70666667-25.70666667-36.58666667-76.58666667-23.14666666-108.90666666l0.10666666-0.10666667 0.96-2.77333333 0-0.21333334c0.42666667-1.70666667 49.06666667-170.02666667 262.29333334-383.25333333 220.16-220.16 380.90666667-262.61333333 382.50666666-263.04l0.32-0.10666667 2.56-0.74666666 0.10666667-0.10666667c9.17333333-3.52 20.26666667-5.33333333 32-5.33333333 29.65333333 0 60.26666667 11.41333333 77.86666667 29.01333333l83.73333333 83.73333333c10.45333333 10.45333333 15.78666667 23.46666667 14.93333333 36.69333334-0.85333333 13.22666667-7.78666667 25.49333333-19.41333333 34.56L765.86666667 259.30666667c-4.90666667 3.84-13.44 6.18666667-22.18666667 6.18666666-6.82666667 0-13.01333333-1.38666667-17.17333333-3.94666666l-114.77333334-69.22666667-7.46666666 0.10666667c-6.50666667 0.10666667-66.45333333 3.62666667-175.68 107.09333333l-0.21333334 0.21333333C329.38666667 404.26666667 321.06666667 467.2 320.42666667 474.02666667l-0.74666667 8.64L389.54666667 598.4c6.4 10.56 5.22666667 29.65333333-2.24 39.36L264.42666667 796.16C254.72 808.74666667 241.38666667 815.6800000000001 227.09333333 815.6800000000001z"  horiz-adv-x="1024" />

    
    <glyph glyph-name="qiandai" unicode="&#58899;" d="M382.624676 563.495446l279.628612 0c18.858214 0 37.014904 7.981788 49.119297 22.454576 28.857435 34.295747 56.22408 76.398002 62.363917 114.11443 12.367415 75.520797-19.998641 113.851409-113.851409 113.851409s-62.100696-61.574453-98.589356-66.661803c-27.190965-3.771643-26.226219 32.102834-68.942257 66.574063-30.699586 24.647289-65.082874-44.996692-105.606399-45.435195-47.277146-0.613984-113.763668 12.455155-113.763668-68.328273 0-32.629277 28.594413-76.748764 59.820242-113.324966C345.346751 572.091418 363.4155 563.495446 382.624676 563.495446zM731.458767 491.571011c-14.91109 16.928522-36.576201 26.4017-59.118518 26.4017L373.941164 517.972711c-21.577371 0-42.365276-8.683513-57.276566-24.296527C222.89937 395.437589 136.414607 255.184681 136.414607 152.911422c0-90.168866 90.607368-204.020274 202.353604-204.020274l346.465896 0c111.746236 0 202.353604 112.886463 202.353604 204.020274C887.587911 257.026632 818.031471 393.332417 731.458767 491.571011zM640.325156 367.45716l-59.995523-108.851798c-5.262832-9.560718 1.66647-21.314149 12.542896-21.314149l17.016263 0c7.894248 0 14.384847-6.403059 14.384847-14.384847l0 0c0-7.894248-6.403059-14.384847-14.384847-14.384847l-42.803979 0c-8.33275 0-14.998831-6.66628-15.086571-14.998831l0-7.104783c0-7.894248 6.403059-14.384847 14.384847-14.384847l43.505503 0c7.894248 0 14.384847-6.403059 14.384847-14.384847s-6.403059-14.384847-14.384847-14.384847l-43.505503 0c-7.894248 0-14.384847-6.403059-14.384847-14.384847l0-36.576201c0-7.894248-6.403059-14.384847-14.384847-14.384847l-26.050738 0c-7.894248 0-14.384847 6.403059-14.384847 14.384847l0 36.576201c0 7.894248-6.403059 14.384847-14.384847 14.384847l-43.067001 0c-7.894248 0-14.384847 6.403059-14.384847 14.384847s6.403059 14.384847 14.384847 14.384847l42.97926 0c7.981988 0 14.385047 6.403059 14.472588 14.384847l0.087741 7.017042c0.087741 8.33275-6.66628 15.174312-15.086571 15.174312l-42.453017 0c-7.894248 0-14.384847 6.403059-14.384847 14.384847l0 0c0 7.894248 6.403059 14.384847 14.384847 14.384847l16.57776 0c10.964166 0 17.805728 11.753431 12.542896 21.314149l-59.995723 108.851599c-5.262832 9.560718 1.66647 21.314349 12.542896 21.314349l28.594413 0c5.438113 0 10.437923-3.069919 12.806117-7.894248l48.856076-97.44893c5.262832-10.525464 20.349403-10.525464 25.699975 0l48.856076 97.44893c2.455935 4.824129 7.367805 7.894248 12.806117 7.894248l28.594413 0C638.658486 388.683768 645.587987 377.017878 640.325156 367.45716z"  horiz-adv-x="1024" />

    
    <glyph glyph-name="qianbao" unicode="&#58933;" d="M1017.2010535 41.07613076999996c0-0.00325551 0-0.00325551 0-0.00325551-0.00162823-64.97315016-52.66940488-117.64743877-117.63929953-117.64743875-0.00325551 0-0.00488373-0.00162823-0.00488373-0.00162824L146.60772522-76.57619173c-0.00325551 0-0.00325551 0.00162823-0.00976746 0.00162824-64.96826643 0-117.63767131 52.67266133-117.63767131 117.64743875L28.96028645 746.96076526c0 51.9791716 42.14008199 94.12088182 94.12088182 94.12088182 0.00325551 0 0.00651196 0 0.00976746 0L503.56284163 841.07839157l83.29365138 41.44008127c12.08723291 4.38721819 30.65680438 5.94838371 40.36240409-2.03977112l22.68981176-39.39868191 179.06034941 0c51.9791716 0 94.11436986-42.13845471 94.11436986-94.12088182l0-70.58455647 0.00325551 0c51.9791716 0 94.11762537-42.13519826 94.11762536-94.1192536L1017.2010535 41.07613076999996 1017.2010535 41.07613076999996zM123.08116827 794.01876478c-0.00325551 0-0.00325551 0-0.00325549 0-25.98795805 0-47.05637129-44.59497114-47.0563713-70.58781196 0-25.99121355 21.06841324-47.0596268 47.0628823-47.0596268l34.00378703 0c-0.00325551 0-23.5298134 0-23.5298134 0l4.45721768 0c0.30116306 0.12046504 0.49976873 0.37767547 0.81069926 0.49325678l281.92636428 117.1525547L123.08116827 794.01876478 123.08116827 794.01876478zM619.02725288 789.77480301l-25.01121195 45.25590202-0.00325551 0.00162822-83.80644307-41.0151967-0.21325591 0-259.75422795-117.64581148 424.99687658 0L619.02725288 789.77480301 619.02725288 789.77480301zM876.02868507 746.95750976c0 25.99121355-21.07004147 47.0596268-47.0596268 47.05962679l-161.94775785 0 57.7468573-117.64418326 151.25727184 0c0 0 0 0 0.00488373 0L876.03031329 746.95750976 876.02868507 746.95750976zM923.08831187 629.3084427599999L123.08116827 629.3084427599999c-0.00651196 0-0.01139569 0.00651196-0.01953492 0.00651197-17.22817287 0.00325551-33.15564615 4.97326584-47.0417201 13.05258331l0-601.29140727c0-38.98844856 31.60424809-70.58618469 70.58618469-70.5861847l752.94426129 0c38.98519211 0 70.58781197 31.59773613 70.58781197 70.5861847L970.1381712 205.78482455999995l-94.12088182 0c-51.97754338 0-94.11274164 42.13357098-94.11274164 94.11436986 0 51.97754338 42.13519826 94.11599809 94.11274164 94.11599809l94.12088182 0L970.1381712 582.2520714699999C970.14142671 608.2432850299999 949.07138618 629.3084427599999 923.08831187 629.3084427599999L923.08831187 629.3084427599999zM970.13979943 252.83956762000003l0.00162823 94.1192536-94.1159981 0c-25.98958533 0-47.0596268-21.06841324-47.05962679-47.0596268 0-25.99446906 21.07004147-47.0596268 47.05962679-47.0596268L970.13979943 252.83956762000003 970.13979943 252.83956762000003 970.13979943 252.83956762000003zM876.02380134 323.43063603999997l47.05962679 0 0-47.05311484-47.05962679 0L876.02380134 323.43063603999997 876.02380134 323.43063603999997z"  horiz-adv-x="1037" />

    
    <glyph glyph-name="zhangdan" unicode="&#58982;" d="M272.047944 168.425233C250.618655 168.425233 233.213788 150.944597 233.213788 129.377451 233.213788 107.838976 250.618655 90.352196 272.047944 90.352196L414.722403 90.352196C412.104998 107.417088 410.743828 124.893628 410.743828 142.692693 410.743828 151.352115 411.069856 159.927603 411.700518 168.425233L272.047944 168.425233 272.047944 168.425233ZM530.646163 402.722133 272.047944 402.722133C250.618655 402.722133 233.213788 385.236412 233.213788 363.673361 233.213788 342.108228 250.618655 324.625579 272.047944 324.625579L463.066419 324.625579C481.551258 354.002261 504.380436 380.329711 530.646163 402.722133L530.646163 402.722133ZM766.383623 778.058001 805.22185 778.058001C848.068202 778.058001 882.950274 743.031194 882.950274 699.947076L882.950274 456.298564C910.987766 444.267315 937.0752 428.548881 960.62877 409.752474L960.62877 699.954244C960.62877 786.216721 891.040891 856.147422 805.221854 856.147422L766.383623 856.147422C744.896259 856.147422 727.514829 838.655522 727.514829 817.106807 727.514825 795.558059 744.89728 778.058001 766.383623 778.058001L766.383623 778.058001ZM380.930492 778.058001 575.170546 778.058001C607.400571 778.058001 633.45438 804.288137 633.45438 836.633259 633.45438 868.965035 607.343517 895.19517 575.170546 895.19517L380.930492 895.19517C348.731034 895.19517 322.610999 868.965035 322.610999 836.633259 322.610999 804.295305 348.730013 778.058001 380.930492 778.058001L380.930492 778.058001ZM455.883592-27.314381 155.506763-27.314381C112.628828-27.314381 77.798721 7.713451 77.798721 50.788352L77.798721 699.954244C77.798721 743.03017 112.629849 778.056977 155.506763 778.056977L194.37454 778.056977C215.802808 778.056977 233.213788 795.557035 233.213788 817.105783 233.213788 838.654498 215.803829 856.153566 194.37454 856.153566L155.506763 856.153566C69.660215 856.153566 0.06928 786.216721 0.06928 699.954244L0.06928 50.796544C0.06928-35.476173 69.659197-105.403802 155.506763-105.403802L517.365569-105.403802C493.286274-82.604851 472.518212-56.306074 455.883592-27.314381L455.883592-27.314381ZM272.047944 558.297873 688.646031 558.297873C710.104866 558.297873 727.514825 575.780557 727.514825 597.338487 727.514825 618.886178 710.103849 636.385246 688.646031 636.385246L272.047944 636.385246C250.618655 636.385246 233.213788 618.887202 233.213788 597.338487 233.213788 575.780557 250.618655 558.297873 272.047944 558.297873L272.047944 558.297873ZM749.892659 413.053645C601.321148 413.053645 480.879841 292.008107 480.879841 142.693717 480.879841-6.61859 601.321148-127.66109 749.892659-127.66109 898.464171-127.66109 1018.906487-6.61859 1018.906487 142.693717 1018.906487 292.008107 898.464171 413.053645 749.892659 413.053645L749.892659 413.053645ZM926.184789 159.734067C926.184789 152.080145 919.681539 145.711275 911.875178 145.711275L911.875178 145.703083 772.658664 145.703083 772.658664 87.034641 911.876195 87.034641C919.682557 87.034641 926.185813 80.660651 926.185813 73.009801L926.185813 47.501517C926.185813 39.855787 919.682557 33.470532 911.876195 33.470532L771.360662 33.470532 771.360662-20.088457C771.360662-27.747499 764.856378-34.119441 757.052054-34.119441L731.026773-34.119441C723.223467-34.119441 716.720203-27.747499 716.720203-20.088457L716.720203 33.470532 587.913196 33.470532C580.108868 33.470532 573.606625 39.855787 573.606625 47.501517L573.606625 73.009801C573.606625 80.661675 580.108868 87.034641 587.913196 87.034641L716.721224 87.034641 716.721224 145.703083 587.913196 145.703083C580.108868 145.703083 573.606625 152.081169 573.606625 159.734067L573.606625 185.240303C573.606625 192.890129 580.108868 199.271287 587.913196 199.271287L675.084237 199.271287 626.818669 277.332036C621.957775 285.857314 621.736687 302.40413 636.100311 310.66624 654.427228 321.350007 671.303315 308.198571 671.303315 308.198571L742.739371 199.271287 746.643572 199.271287 814.615569 308.198571C821.56814 319.883708 839.406015 324.123853 854.840439 313.129847 873.648251 298.988271 862.388016 281.089877 862.388016 281.089877L812.996628 199.271287 911.875178 199.271287C919.681539 199.271287 926.184789 192.893201 926.184789 185.240303L926.184789 159.734067 926.184789 159.734067Z"  horiz-adv-x="1024" />

    
    <glyph glyph-name="youxiang" unicode="&#59026;" d="M512.01228 328.469266l465.797725 388.074549c-2.524496 0.459464-4.790096 1.512447-7.407714 1.512447L53.626361 718.056262c-2.565429 0-4.845355-1.038656-7.370875-1.512447L512.01228 328.469266 512.01228 328.469266zM1012.079506 676.377c0 4.372587-1.202385 8.42181-2.523473 12.402471L679.367869 413.579689l330.687538-330.74075c0.850367 3.333932 2.0241 6.545066 2.0241 10.149151L1012.079506 676.377 1012.079506 676.377 1012.079506 676.377zM14.483876 688.82245c-1.282203-4.00829-2.563382-8.003278-2.563382-12.444427l0-583.376631c0-3.643993 1.254573-6.842849 2.078335-10.175757l330.793962 330.767356L14.483876 688.82245 14.483876 688.82245zM647.162376 386.801812 525.320377 285.31849c-3.818979-3.252067-8.543583-4.818749-13.30912-4.818749-4.723581 0-9.474792 1.566682-13.33368 4.818749l-121.734552 101.43011L43.545772 53.374884c3.279696-0.864694 6.532787-2.065032 10.082636-2.065032L970.415594 51.309852c3.618411 0 6.869455 1.187035 10.215666 2.065032L647.162376 386.801812 647.162376 386.801812z"  horiz-adv-x="1024" />

    
    <glyph glyph-name="xiangyou1" unicode="&#58901;" d="M726.384184 385.324158c-13.772678 16.34527-27.65485 32.598442-41.303708 49.046043C565.816185 578.087417 446.595896 721.840448 327.326489 865.554594c-1.476631 1.782599-3.399423 3.194762-5.116531 4.779863 0-16.786315 0-33.570583 0-50.356898 3.107781-3.324722 6.401804-6.497994 9.299807-9.996678C447.707207 669.708114 563.868833 529.404648 680.031483 389.103228c1.393743-1.684362 2.723018-3.422959 4.464685-5.616928-7.198959-8.713452-14.319124-17.35118-21.462824-25.971511-112.543216-135.843898-225.090525-271.685749-337.650113-407.517367-0.971118-1.172709-2.112104-2.204202-3.174296-3.302209 0-16.343223 0-32.68747 0-49.030693 2.134617 2.096754 4.476965 4.0175 6.375198 6.309706 132.010593 159.365614 263.987417 318.759881 395.97345 478.146984 0.555655 0.670266 1.214664 1.254573 1.824555 1.877767C726.384184 384.441045 726.384184 384.883113 726.384184 385.324158z"  horiz-adv-x="1024" />

    
    <glyph glyph-name="iconfontdialog" unicode="&#58929;" d="M512.00173057 737.20766924C281.77410958 737.20766924 95.1246125 574.91374102 95.1246125 374.70427177c0-117.20324356 63.97634531-221.40723604 163.20769453-287.66915156l-0.08306982-153.03512021 136.26427412 92.80498623c37.26367471-9.49994121 76.69062158-14.60180391 117.48591123-14.60180391 230.22762099 0 416.87596494 162.29277422 416.87596494 362.49993633C928.87654151 574.91374102 742.23165958 737.20766924 512.00173057 737.20766924L512.00173057 737.20766924zM512.00173057 48.45156036000003c-45.334125 0-88.81418057 6.80017676-129.13758809 19.26408954l-32.64176953-27.20301328c0.62994551-0.2295958 1.26335127-0.45342158 1.89444991-0.68301738l-57.03425861-40.47800976-0.58264188 74.30582987 0 33.27633018c-98.60601885 58.95639844-163.12577871 156.90016758-163.12577872 267.76934825 0 180.18967588 170.41745039 326.25155742 380.62758604 326.25155742 210.20782763 0 380.62643291-146.06303555 380.62643291-326.25155742C892.62816348 194.51459589 722.20955908 48.45156036000003 512.00173057 48.45156036000003L512.00173057 48.45156036000003zM252.06285342 376.10607275999996M448.59879688 380.14072089M681.96114424 380.14072089M367.83143134 411.74967929c-19.24985454 0-34.96706803-15.60408459-34.96706803-34.85298899s15.71816363-34.85298898 34.96706803-34.85298897 34.85584087 15.60408459 34.85584088 34.85298897S387.0812859 411.74967929 367.83143134 411.74967929L367.83143134 411.74967929zM697.4403938 411.74967929c-19.24795354 0-34.85489-15.60408459-34.85489-34.85298899s15.6069372-34.85298898 34.85489-34.85298897c19.25080543 0 34.85489 15.60408459 34.85489001 34.85298897S716.69119922 411.74967929 697.4403938 411.74967929L697.4403938 411.74967929zM536.99800297 411.74967929c-19.24890441 0-34.85298898-15.60408459-34.85298898-34.85298899s15.60408459-34.85298898 34.85298898-34.85298897c19.24985454 0 34.85584087 15.60408459 34.85584087 34.85298897S556.24785753 411.74967929 536.99800297 411.74967929L536.99800297 411.74967929z"  horiz-adv-x="1024" />

    
    <glyph glyph-name="dizhi" unicode="&#59903;" d="M511.999 825.728c-194.99 0-353.054-158.067-353.054-353.054 0-194.992 276.679-493.406 276.679-493.406 42.18-49.235 111.21-49.495 152.98 0.265 0 0 276.449 298.149 276.449 493.141C865.053 667.661 706.988 825.728 511.999 825.728L511.999 825.728 511.999 825.728zM511.999 320.626c-90.215 0-163.325 73.122-163.325 163.327s73.11 163.325 163.325 163.325c90.2 0 163.315-73.12 163.315-163.325S602.198 320.626 511.999 320.626L511.999 320.626 511.999 320.626z"  horiz-adv-x="1024" />

    
    <glyph glyph-name="yaochi" unicode="&#59013;" d="M104.90002382 374.49367413000004C212.49106721 266.90438191 378.35789255 257.93860788999996 494.91295879 343.11346405999996l98.62351819-98.62351818-125.52259242-125.52084124c-17.93154902-17.93154902-17.93154902-44.83062325 1e-8-62.76042014 17.93154902-17.93154902 44.83062325-17.93154902 62.76217129 0l125.52084125 125.52084124 98.62176702-98.62351818-85.17310501-85.17485619c-17.93154902-17.93154902-17.93154902-44.83062325 0-62.76042013 17.92979785-17.93154902 44.82887209-17.93154902 62.76042014 0l85.17485617 85.17485618 112.07217923-107.58929221C947.68631487-105.17525284999999 974.58188674-105.17525284999999 992.5134348-87.24370479000004c17.93154902 17.93154902 17.93154902 44.83062325 0 62.7621713l-143.45238929 143.4523893 0 0 0 0-161.38393833 161.38393831 0 0 0 0L557.67337893 410.35677219c89.65774319 116.55506624 80.69196916 286.90477859-26.89557188 390.01118379-58.2792843 58.27753313-134.48836645 89.65774319-210.6974486 89.65774318-76.20908215 0-152.4181643-31.38021007-210.69394624-89.65774318C-11.65329125 683.81288974-11.65329125 495.52987718 104.90002382 374.49367413000004L104.90002382 374.49367413000004zM167.66044395 737.60753488c85.17660735 85.17660735 219.66147144 85.17660735 300.35519179 0 80.69372033-80.69196917 80.69372033-215.17858443 0-300.35344061-40.3459841-40.3459841-94.1406302-62.76042014-147.93527631-62.76042014-53.79464612 0-107.58754104 22.41443604-147.93352514 62.76042014l0 0C86.97022598 522.4289514100001 86.97022598 656.91556667 167.66044395 737.60753488L167.66044395 737.60753488z"  horiz-adv-x="1024" />

    
    <glyph glyph-name="xiala" unicode="&#58964;" d="M787.2 515.2c-9.6 9.6-22.4 12.8-35.2 12.8l-480-3.2c-12.8 0-25.6-3.2-35.2-12.8-19.2-19.2-19.2-48 0-67.2l240-240c3.2-3.2 9.6-6.4 12.8-9.6l3.2-3.2c16-6.4 38.4-3.2 51.2 9.6l240 243.2c22.4 22.4 19.2 51.2 3.2 70.4z"  horiz-adv-x="1024" />

    
    <glyph glyph-name="chenggong" unicode="&#58976;" d="M515.489958 891.987592C238.48751 891.987592 13.938939 667.43902 13.938939 390.436571 13.938939 113.434123 238.48751-111.11445000000003 515.489958-111.11445000000003 630.512327-111.11445000000003 739.641469-72.26514399999996 827.747264-2.06889799999999 838.321634 6.352979000000005 840.056162 21.754774999999995 831.634285 32.308246000000054 823.212408 42.88261299999999 807.83151 44.61714400000005 797.257144 36.19526399999995 717.740408-27.14644999999996 619.311021-62.17142899999999 515.46906-62.17142899999999 265.487674-62.17142899999999 62.840163 140.47608100000002 62.840163 390.457469 62.840163 640.438857 265.487674 843.086367 515.46906 843.086367 765.45045 843.086367 968.097958 640.438857 968.097958 390.457469 968.097958 304.75494000000003 944.253387 222.62595799999997 899.949715 151.46840799999995 892.802613 140.01632700000005 896.292571 124.90710200000001 907.76555 117.78089799999998 919.238531 110.63379599999996 934.326856 114.12375399999996 941.473958 125.59673599999996 990.60506 204.44473600000003 1017.040979 295.53894 1017.040979 390.457469 1017.040979 667.43902 792.492408 891.987592 515.489958 891.987592L515.489958 891.987592ZM796.525715 532.438204L502.825796 229.313306C493.588898 219.78383799999995 478.458775 219.34497899999997 468.699429 228.331102L290.962285 391.711348C281.014856 400.843754 280.367021 416.329144 289.499429 426.276571 298.652736 436.224 314.117225 436.871838 324.064652 427.739429L484.268408 280.49240799999995 761.396246 566.5018769999999C770.779429 576.198531 786.285715 576.449306 795.982366 567.0452250000001 805.699919 557.6411439999999 805.929796 542.134856 796.525715 532.438204L796.525715 532.438204Z"  horiz-adv-x="1024" />

    
    <glyph glyph-name="dingdan" unicode="&#58881;" d="M752 704c26.496 0 48 21.504 48 48L800 848c0 26.496-21.504 48-48 48s-48-21.504-48-48l0-96C704 725.504 725.504 704 752 704zM512 704c26.496 0 48 21.504 48 48L560 848c0 26.496-21.504 48-48 48s-48-21.504-48-48l0-96C464 725.504 485.504 704 512 704zM928 800l-80 0 0-48c0-53.008-42.976-96-96-96-53.008 0-96 43.008-96 96L656 800l-48 0 0-48c0-53.008-42.976-96-96-96-53.008 0-96 43.008-96 96L416 800l-48 0 0-48c0-53.008-42.976-96-96-96-53.008 0-96 43.008-96 96L176 800 96 800C69.504 800 48 778.496 48 752l0-832c0-26.496 21.504-48 48-48l832 0c26.496 0 48 21.504 48 48L976 752C976 778.496 954.496 800 928 800zM808 32l-592 0c-22.096 0-40 17.904-40 40s17.904 40 40 40l592 0c22.096 0 40-17.904 40-40S830.096 32 808 32zM800 224L224 224c-26.496 0-48 21.504-48 48s21.504 48 48 48l576 0c26.496 0 48-21.504 48-48S826.496 224 800 224zM800 432L224 432c-26.496 0-48 21.504-48 48s21.504 48 48 48l576 0c26.496 0 48-21.504 48-48S826.496 432 800 432zM272 704c26.496 0 48 21.504 48 48L320 848c0 26.496-21.504 48-48 48s-48-21.504-48-48l0-96C224 725.504 245.504 704 272 704z"  horiz-adv-x="1024" />

    
    <glyph glyph-name="xiangqing" unicode="&#58937;" d="M512-128C229.888-128 0 101.888 0 384S229.888 896 512 896s512-229.888 512-512-229.888-512-512-512z m0 972.8c-253.952 0-460.8-206.848-460.8-460.8s206.848-460.8 460.8-460.8 460.8 206.848 460.8 460.8-206.848 460.8-460.8 460.8zM506.368 81.92c-20.992-11.776-38.4-17.92-51.712-17.92-11.776 0-20.992 3.584-28.16 10.752-6.656 7.168-10.24 17.408-10.24 30.208 0 40.96 25.088 141.312 75.776 301.056 2.56 7.68 3.584 14.336 3.584 19.968 0 6.656-3.072 9.728-9.216 9.728-6.656 0-14.336-2.56-23.04-7.68-8.704-5.12-27.648-22.016-57.344-50.176L384 394.752c33.792 36.352 64 61.952 91.648 77.312 27.648 15.36 51.2 23.04 70.656 23.04 10.752 0 18.944-2.048 24.576-6.656 5.632-4.608 8.704-10.752 8.704-18.944 0-9.728-10.752-50.176-32.768-121.344-35.328-116.736-53.248-186.88-53.248-210.944 0-4.608 1.024-8.704 3.584-11.776 2.56-3.072 5.12-4.608 7.68-4.608 10.752 0 38.4 20.48 82.432 60.928l19.456-18.944c-45.568-41.984-78.848-69.12-100.352-80.896zM624.64 629.76c-10.24-11.264-21.504-16.384-34.304-16.384-10.24 0-18.432 3.584-25.088 10.24-6.656 6.656-10.24 15.872-10.24 27.136 0 14.848 4.608 27.136 14.848 37.888 9.728 10.24 21.504 15.36 34.816 15.36 10.24 0 18.944-3.584 25.6-10.24 6.656-6.656 10.24-15.36 10.24-26.112-0.512-13.824-5.632-26.624-15.872-37.888z"  horiz-adv-x="1024" />

    
    <glyph glyph-name="weixin" unicode="&#58943;" d="M506.942 550.079c25.259 0 42.134 16.916 42.134 42.107 0 25.477-16.848 41.956-42.134 41.956-25.299 0-50.668-16.48-50.668-41.956 0.028-25.204 25.409-42.107 50.668-42.107v0zM506.942 550.079zM271.257 634.143c-25.259 0-50.79-16.48-50.79-41.956 0-25.19 25.532-42.107 50.79-42.107 25.163 0 42.012 16.916 42.012 42.107-0.014 25.477-16.834 41.956-42.012 41.956v0zM271.257 634.143zM1010.654 280.50800000000004c0 133.202-123.563 246.702-275.237 258.512 0.205 1.652 0.301 3.373-0.068 5.092-30.406 141.79-182.886 248.695-354.7 248.695-194.15 0-352.119-135.387-352.119-301.793 0-89.279 45.574-169.725 131.946-233.158l-30.106-90.508c-1.939-5.885-0.177-12.37 4.506-16.452 2.853-2.458 6.445-3.741 10.076-3.741 2.335 0 4.697 0.546 6.867 1.625l113.036 56.565 13.926-2.827c34.802-7.154 64.853-13.353 101.868-13.353 10.895 0 40.878 3.987 43.404 7.182 40.755-101.99 153.094-175.61 285.273-175.61 33.86 0 68.13 8.164 98.891 15.866l87.136-47.636c2.307-1.257 4.847-1.911 7.359-1.911 3.441 0 6.881 1.161 9.639 3.413 4.847 3.932 6.841 10.404 5.038 16.33l-22.255 74.001c74.602 58.955 115.521 129.488 115.521 199.708v0zM409.798 230.25c-9.626-0.833-19.388-1.243-29.082-1.243-32.686 0-60.334 5.652-92.31 12.26l-18.582 3.755c-3.195 0.683-6.567 0.245-9.503-1.269l-81.687-40.892 21.231 63.775c2.076 6.24-0.205 13.053-5.57 16.821-82.07 57.207-123.659 126.894-123.659 207.093 0 144.179 139.087 261.516 310.067 261.516 151.142 0 284.959-91.955 312.579-214.261-158.475-2.076-286.706-113.487-286.706-250.32 0-19.893 3.018-39.171 8.11-57.767-1.542 0.382-3.168 0.683-4.887 0.532v0zM860.371 107.30100000000004c-4.875-3.673-6.935-10.007-5.188-15.852l13.804-45.903-56.647 30.993c-2.157 1.188-4.588 1.803-7.004 1.803-1.188 0-2.389-0.15-3.564-0.464-30.379-7.674-61.822-15.593-92.433-15.593-142.186 0-257.857 97.717-257.857 217.811 0 120.095 115.658 217.771 257.857 217.771 139.469 0 257.325-99.724 257.325-217.771 0-59.87-37.738-121.255-106.291-172.797v0zM868.181 98.822zM616.454 389.994c-16.848 0-33.696-16.971-33.696-33.792 0-16.944 16.848-33.669 33.696-33.669 25.313 0 42.038 16.725 42.038 33.669 0 16.848-16.725 33.792-42.038 33.792v0zM616.454 389.994zM801.58 389.994c-16.603 0-33.451-16.971-33.451-33.792 0-16.944 16.848-33.669 33.451-33.669 25.231 0 42.257 16.725 42.257 33.669 0 16.848-16.998 33.792-42.257 33.792v0zM801.58 389.994z"  horiz-adv-x="1024" />

    
    <glyph glyph-name="qq1" unicode="&#58898;" d="M115.41333333 92.84100000000001c22.43-7.581 46.927-2.973 68.962 13.135 0.572-0.886 1.123-1.752 1.694-2.61900001-37.632-22.961-58.624-55.02-58.624-90.76199999 0-73.511 86.469-126.858 205.627-126.858 63.193 0 121.758 16.404 159.39 44.288 12.229-0.689 23.138-0.689 35.505-0.02 37.632-27.864 96.177-44.268 159.37-44.268 119.138 0 205.646 53.347 205.646 126.858 0 35.663-20.913 67.624-58.387 90.605a99.888 99.888 0 0 1 1.713 2.638c21.977-15.99 46.316-20.618 68.766-13.016 67.17 22.823 70.833 140.012 40.192 238.69-16.266 52.342-46.16 93.361-71.07 120.655 0.295 3.78 0.453 7.542 0.453 11.343 0 28.947-7.582 57.029-22.528 83.67199999v0.37400001c0 190.327-153.265 345.187-341.642 345.187-188.396 0-341.661-154.86-341.661-345.187v-1.22c-14.632-26.388-22.056-54.213-22.056-82.807 0-3.446 0.118-6.931 0.394-10.476-25.226-27.451-55.473-68.785-71.857-121.54000001-30.661-98.718-26.998-215.868 40.113-238.67199999z m7.956 223.72499999c15.242 49.132 45.45 86.96 68.096 110.02000001a25.196 25.196 0 0 1 6.892 21.56399999c-0.827 5.317-1.26 10.397-1.26 15.34000001 0 21.681 6.301 43.047 18.688 63.42899999a25.488 25.488 0 0 1 3.623 14.82800001 79.882 79.882 0 0 0-0.236 5.78999999c0 162.56 130.678 294.813 291.288 294.813s291.289-132.253 291.289-294.813c0-1.753-0.079-3.446-0.197-5.15999999a25.277 25.277 0 0 1 3.683-14.82800001c12.642-20.559 19.042-42.102 19.042-64.03999999 0-5.159-0.453-10.377-1.359-15.93000001-1.339-7.917 1.221-15.951 6.833-21.72099999 22.37-22.902 52.264-60.475 67.407-109.29200001 26.959-86.784 17.507-167.286-8.211-176.02999999-13.332-4.51-29.125 9.708-38.952 21.445-5.336 6.42-13.41 9.807-21.937 8.881a25.137 25.137 0 0 1-19.594-13.233 324.714 324.714 0 0 0-31.252-47.97 25.242 25.242 0 0 1-4.549-21.918 25.215 25.215 0 0 1 14.69-16.876c35.152-14.651 55.277-35.88 55.277-58.25 0-42.181-69.651-76.485-155.274-76.485-55.512 0-107.185 14.828-134.813 38.715a25.174 25.174 0 0 1-16.463 6.124c-0.61 0-1.26-0.02-1.87-0.078-17.389-1.3-30.957-1.28-47.853 0.02-6.932 0.61-13.351-1.675-18.393-6.046-27.667-23.907-79.34-38.735-134.872-38.735-85.603 0-155.254 34.304-155.254 76.485 0 22.45 20.243 43.737 55.512 58.368 7.286 3.033 12.721 9.236 14.71 16.87599999a25.113 25.113 0 0 1-4.51 21.918c-11.874 15.183-22.37 31.35-31.231 48.049a25.163 25.163 0 0 1-19.633 13.253c-8.468 0.886-16.581-2.462-21.957-8.88099999-9.886-11.835-25.522-26.349-39.11-21.622-25.776 8.704-35.19 89.186-8.25 175.98999999z"  horiz-adv-x="1024" />

    
    <glyph glyph-name="qiehuanzuhu" unicode="&#58962;" d="M999.58516583 421.33679697l-197.89593348 190.52389028c-15.83167468 15.24715102-39.57918669 15.24715102-55.40976058 0-15.83167468-15.23724383-15.83167468-38.10301678 0-53.3501678l130.60636252-125.74193681h-379.9601923c-23.74751202 0-39.57918669-15.23724383-39.5791867-38.10301678s15.83167468-38.10301678 39.5791867-38.10301678h379.9601923l-130.59755614-125.74193681c-15.83167468-15.24715102-15.83167468-38.11292396 0-53.3501678 7.91693814-7.6285291 15.83167468-11.43288647 27.7004771-11.43288647 11.8798104 0 19.79454694 3.81426455 27.71038428 11.43288647l197.89593348 194.32934845s0 3.81426455 3.96287226 3.81426455c11.86880242 11.43288647 11.86880242 34.28875223-3.96287226 45.7216387zM892.71640816 122.60230868999997c-23.74751202 0-39.57918669-15.24715102-39.5791867-38.10301678v-76.21594074c0-22.85586576-15.83167468-38.10301678-39.57918669-38.10301678h-672.84617385c-23.74751202 0-39.57918669 15.24715102-39.5791867 38.10301678v762.10106512c0 22.85586576 15.83167468 38.10301678 39.5791867 38.10301678h672.84617385c23.74751202 0 39.57918669-15.24715102 39.57918669-38.10301678v-76.21594073c0-22.85696656 15.83167468-38.10301678 39.5791867-38.10301679s39.57918669 15.24715102 39.5791867 38.10301679v76.21594073c0 64.77314709-51.44688831 114.30905034-118.73756009 114.30905034h-672.84617385c-67.2796638 0-118.73756009-49.53590325-118.73756009-114.30905034v-762.10106512c0-64.77314709 51.4589971-114.30905034 118.73756009-114.30905034h672.84617385c67.28957098 0 118.73756009 49.53590325 118.73756009 114.30905034v76.21594074c0 22.85696656-15.83167468 38.10301678-39.5791867 38.10301678z"  horiz-adv-x="1024" />

    
    <glyph glyph-name="jishufuwu" unicode="&#59286;" d="M889.21476651 223.98152490999996c-9.3311027 0-18.66220406-0.99267101-27.79477229-2.97801036l-140.95920209 169.74664405 140.95920209 169.74664539c68.69279416-15.28712475 136.59145177 27.79477229 152.07711102 96.28903197 15.28712475 68.69279416-27.79477229 136.59145177-96.28903199 152.07711237s-136.59145177-27.79477229-152.077111-96.28903333c-11.91204546-53.20713493 11.31644338-108.00254431 57.77341972-136.39291866l-128.05448696-154.4595193-151.28297448 182.45282607c-13.50031854 16.27979577-37.72147704 18.46366958-53.80273835 4.96335238-1.78680622-1.5882731-3.57361377-3.17654481-4.96335239-4.96335238l-151.28297446-182.45282607-128.05448698 154.26098619c59.95729487 36.53027157 79.01656652 114.95123738 42.48629496 174.9085309-36.53027157 59.95729487-114.95123738 79.01656652-174.90853091 42.48629496-59.95729487-36.53027157-79.01656652-114.95123738-42.48629495-174.90853089 28.39037435-46.45697633 83.18578237-69.8839983 136.39291865-57.97195421l140.95920209-169.74664539L166.55068715 221.00351454999998c-68.69279416 15.28712475-136.59145177-27.79477229-152.077111-96.4875678s27.79477229-136.59145177 96.48756644-152.077111 136.59145177 27.79477229 152.07711101 96.48756642c11.91204546 53.20713493-11.31644338 108.00254431-57.77341973 136.39291867l128.05448697 154.26098617 85.36965754-102.84065744c-46.45697633-52.81006734-41.29509082-133.01783937 11.51497786-179.4748157 52.81006734-46.45697633 133.01783937-41.29509082 179.47481433 11.51497787 42.28776048 48.04524941 42.28776048 119.91458841 0 167.95983783l85.36965891 102.84065744 128.05448561-154.26098617c-59.7587604-36.72880604-78.61949893-114.95123738-42.08922601-174.70999643 36.72880604-59.7587604 114.95123738-78.61949893 174.70999643-42.08922737s78.61949893 114.95123738 42.08922737 174.70999778C974.58442402 201.15010499000005 933.48786768 223.98152490999996 889.21476651 223.98152490999996z m0 547.95408291c48.2437839 0 87.55353269-39.11121567 87.55353268-87.35499958s-39.11121567-87.55353269-87.3549982-87.55353268-87.55353269 39.11121567-87.5535327 87.35499957v0.19853311c0 48.2437839 39.11121567 87.35499821 87.35499822 87.35499958z m-837.81384986-87.35499958c0 48.2437839 39.11121567 87.55353269 87.55353269 87.55353269 48.2437839 0 87.55353269-39.11121567 87.55353269-87.55353269 0-48.2437839-39.11121567-87.55353269-87.55353269-87.55353268h-0.19853447c-48.2437839 0.19853447-87.35499821 39.30974881-87.35499822 87.55353268z m87.35499822-675.21443199c-48.2437839 0-87.55353269 39.11121567-87.55353268 87.55353268s39.11121567 87.55353269 87.55353268 87.5535327 87.55353269-39.11121567 87.5535327-87.5535327c-0.19853447-48.44231702-39.30974881-87.55353269-87.5535327-87.55353268z m375.22942582 76.03855618c-48.2437839 0-87.55353269 39.11121567-87.55353269 87.5535327s39.11121567 87.55353269 87.55353269 87.55353269c48.2437839 0 87.55353269-39.11121567 87.55353269-87.55353269-0.19853447-48.44231702-39.30974881-87.55353269-87.55353269-87.5535327z m64.92064726 196.74728113c-40.10388534 23.82409091-89.93594233 23.82409091-129.84129317 0l-90.1344768 108.59814504 155.05512271 186.82057636 155.0551227-186.82057636-90.13447544-108.59814504zM889.21476651 9.366176249999967c-48.2437839 0-87.55353269 39.11121567-87.55353269 87.55353268s39.11121567 87.55353269 87.55353269 87.5535327 87.55353269-39.11121567 87.55353268-87.5535327c-0.19853447-48.44231702-39.30974881-87.55353269-87.55353268-87.55353268z"  horiz-adv-x="1024" />

    
    <glyph glyph-name="xiexian" unicode="&#59385;" d="M606.939429 753.956571c-15.652571 3.949714-31.597714-5.412571-35.547429-21.065142l-175.542857-689.005715c-4.096-15.652571 5.266286-31.597714 20.918857-35.693714s31.597714 5.266286 35.693714 20.918857c0 0.146286 0 0.146286 0.146286 0.292572l175.542857 689.005714c3.949714 15.652571-5.558857 31.597714-21.211428 35.547428z"  horiz-adv-x="1024" />

    
    <glyph glyph-name="youtong-xuanzhong" unicode="&#58897;" d="M832.53421408 653.30145252c41.08362768 0 74.50293621 31.18864896 74.50293621 69.53053816v35.50513302c0 85.404387-248.94829446 98.16103152-397.34714742 98.16103152S112.34193352 843.7415107 112.34193352 758.3371237v-35.50513302c0-38.34281206 33.41930854-69.53053816 74.50293621-69.53053816h24.83431207v-540.82341694c0-6.72980366-2.60704921-13.06015471-7.3239078-17.80099915-4.68088031-4.71685861-10.90145079-7.31191535-17.51040427-7.31191535h-49.66862414c-13.71422298 0-24.83431207-11.11916624-24.83431207-24.83431206v-124.89850715c0-13.71422298 11.11916624-24.83431207 24.83431207-24.83431207h745.02566978c13.71422298 0 24.83431207 11.11916624 24.83431207 24.83431207V62.53080901999999c0 13.71422298-11.11916624 24.83431207-24.83431207 24.83431206h-49.66862414c-6.60895256 0-12.84151642 2.59505674-17.51040426 7.29992289-4.72885199 4.74176729-7.32390781 11.07119549-7.32390781 17.81299159V653.30145252h24.83523492zM683.52280639 481.67440082c0-26.84264379-20.08516473-48.60403273-44.86228031-48.60403274H380.70564242c-24.77619273 0-44.86228031 21.76138894-44.86228124 48.60403274v52.65575252c0 26.84448857 20.08516473 48.60403273 44.86228124 48.60403273h257.95488366c24.77619273 0 44.86228031-21.76046609 44.86228031-48.60403273v-52.65575252z"  horiz-adv-x="1024" />

    
    <glyph glyph-name="jiantou" unicode="&#58892;" d="M676.474 529.9200000000001c-7.68 7.68-7.68 20.48 0 28.16s20.48 7.68 28.16 0l160-160c7.68-7.68 7.68-20.48 0-28.16l-160-160c-7.68-7.68-20.48-7.68-28.16 0s-7.68 20.48 0 28.16l125.768 125.75700001-628.479-1e-8c-11.203 0-20.163 8.96-20.163 20.163s8.96 20.163 20.163 20.163l628.798 0-126.085 125.757z"  horiz-adv-x="1024" />

    
    <glyph glyph-name="tuanduihezuo" unicode="&#59067;" d="M858.73049492 85.44064189999995c-48.80783935 0-88.51736162 40.20898448-88.51736075 89.63327724 0 49.42879278 39.70952138 89.64227724 88.51736075 89.64227724 48.80333935 0 88.50836162-40.20898448 88.5083625-89.63327724 0-49.43329277-39.70952138-89.64227724-88.5083625-89.64227724z m0 134.27442948c-23.9967 0-43.52073574-20.02799795-43.52073574-44.64565136 0-24.6131543 19.52403574-44.63665224 43.52073574-44.63665225 23.99220088 0 43.51173662 20.02799795 43.51173662 44.64565137 0 24.6131543-19.51953575 44.63665224-43.51173662 44.63665224zM518.52001133 645.31115127c-48.80333935 0-88.50836162 40.20448448-88.5083625 89.62427901 0 49.42879278 39.70502227 89.64227724 88.5083625 89.64227636 48.80783935 0 88.51286162-40.20898448 88.51286162-89.62877812 0-49.42879278-39.70502227-89.63777724-88.51286162-89.63777725z m0 134.26993037c-23.9967 0-43.51173662-20.02799795-43.51173662-44.64565136 0-24.6086543 19.51953575-44.62765312 43.51173662-44.62765313 23.9967 0 43.51623662 20.02799795 43.51623574 44.64115137 0 24.6086543-19.51953575 44.63215224-43.51623574 44.63215312zM182.26023066 90.16528770000002c-48.80333935 0-88.50836162 40.20898448-88.50836162 89.63327724 0 49.42879278 39.70502227 89.64227724 88.50836162 89.64227725 48.80333935 0 88.5038625-40.20898448 88.50386163-89.63327813 0-49.42879278-39.70052227-89.64227724-88.50386163-89.64227637z m0 134.27892861c-23.9967 0-43.51173662-20.02799795-43.51173662-44.64565137 0-24.6131543 19.51953575-44.63665224 43.51173662-44.63665224s43.50723662 20.02799795 43.50723663 44.64565136c0 24.6131543-19.51503662 44.63665224-43.50723663 44.63665225zM123.45414102 301.02847266000003a22.4983125 22.4983125 0 0 0-22.41281954 20.86493554 428.07089443 428.07089443 0 0 0-1.12041562 30.94417881c0 150.72519551 81.57888193 290.49821279 212.90153203 364.76964229a420.36297276 420.36297276 0 0 0 33.08151973 16.81973877 22.5028125 22.5028125 0 0 0 18.58810517-40.97842647 374.64190224 374.64190224 0 0 1-29.51778604-15.001875C217.74006934 612.13513945 144.91753086 487.37299717 144.91753086 352.83308789c0-9.25130654 0.33747451-18.55660869 1.00342529-27.6729249a22.4983125 22.4983125 0 0 0-22.46681513-24.13169033zM518.71349638-65.95500351999999c-66.05054648 0-129.26630479 14.9433794-187.88790849 44.42066895a419.93550528 419.93550528 0 0 0-71.59862988 45.63557666 22.49381338 22.49381338 0 1 0 27.89340821 35.29985273 375.19086094 375.19086094 0 0 1 63.91320644-40.73544492c52.29957744-26.29602773 108.71184638-39.62852754 167.67992372-39.62852753 58.77909141 0 115.03387266 13.24700684 167.19396065 39.38554599a374.69589786 374.69589786 0 0 1 63.04927149 39.92550557 22.50731162 22.50731162 0 0 0 31.58763046-3.84721172 22.50731162 22.50731162 0 0 0-3.84721083-31.58763047 420.13349033 420.13349033 0 0 0-70.63120284-44.72214609c-58.47311425-29.29280273-121.50888662-44.14618916-187.35244893-44.14618917zM914.03584737 302.11289180000006a22.4983125 22.4983125 0 0 0-22.46231514 24.10019208c0.62095342 8.68434873 0.93143057 17.63867724 0.93142969 26.61550401 0 137.37469658-75.10386709 263.40574482-196.00979942 328.90283262a372.39207099 372.39207099 0 0 1-25.76506729 12.70254726 22.4983125 22.4983125 0 0 0 18.30912716 41.1044168 417.2222083 417.2222083 0 0 0 28.89683261-14.24143213c135.43084248-73.37599717 219.56553281-214.5619081 219.56553281-368.46836455 0-10.03424766-0.35097364-20.06849443-1.04392177-29.81476406a22.50731162 22.50731162 0 0 0-22.42181865-20.90093203z"  horiz-adv-x="1024" />

    
    <glyph glyph-name="jiantou2" unicode="&#58960;" d="M128 416L773.6 416 530.4 658.4 576.00000001 704l274.39999999-274.4L896.00000001 384l-45.60000001-45.6L576.00000001 64l-45.60000001 45.6L773.6 352 128 352l0 64z"  horiz-adv-x="1024" />

    
    <glyph glyph-name="yonghujiegou" unicode="&#58952;" d="M542.58346667 428.78293333c-8.192 0-14.7456 6.5536-14.7456 14.7456V570.2314666699999c0 8.192-6.5536 14.7456-14.7456 14.7456h-13.1072c-8.192 0-14.7456-6.5536-14.7456-14.7456v-126.70293334c0-8.192-6.5536-14.7456-14.7456-14.7456H130.2528c-8.192 0-14.7456-6.5536-14.7456-14.7456v-214.08426666c0-8.192 6.5536-14.7456 14.7456-14.7456h16.93013333c8.192 0 14.7456 6.5536 14.7456 14.7456l0.54613334 170.3936c0 8.192 6.5536 14.7456 14.7456 14.7456h675.56693333c8.192 0 14.7456-6.5536 14.7456-14.7456l-0.54613333-170.3936c0-8.192 6.5536-14.7456 14.7456-14.7456h15.83786666c8.192 0 14.7456 6.5536 14.7456 14.7456l0.54613334 180.77013333v32.768c0 8.192-6.5536 14.7456-14.7456 14.7456l-355.5328 0.54613333zM512 553.84746667c-74.27413333 0-134.3488 60.07466667-134.3488 134.3488s60.07466667 134.3488 134.3488 134.3488 134.3488-60.07466667 134.3488-134.3488c0-73.728-60.6208-134.3488-134.3488-134.3488z m0 233.74506666c-55.15946667 0-99.39626667-44.78293333-99.39626667-99.39626666 0-55.15946667 44.78293333-99.39626667 99.39626667-99.39626667 55.15946667 0 99.39626667 44.78293333 99.39626667 99.39626667S566.61333333 787.59253333 512 787.59253333zM136.26026667 215.79093333000003c-74.27413333 0-134.3488-60.07466667-134.3488-134.3488 0-74.27413333 60.07466667-134.3488 134.3488-134.3488 74.27413333 0 134.3488 60.07466667 134.3488 134.3488-0.54613333 74.27413333-60.07466667 134.3488-134.3488 134.3488z m0-233.19893333c-55.15946667 0-99.39626667 44.78293333-99.39626667 99.39626667 0 55.15946667 44.78293333 99.39626667 99.39626667 99.39626666 55.15946667 0 99.39626667-44.78293333 99.39626666-99.39626666s-44.78293333-99.39626667-99.39626666-99.39626667z m754.75626666 233.19893333c-74.27413333 0-134.3488-60.07466667-134.3488-134.3488 0-74.27413333 60.07466667-134.3488 134.3488-134.3488 74.27413333 0 134.3488 60.07466667 134.3488 134.3488 0 74.27413333-60.07466667 134.3488-134.3488 134.3488z m0-233.19893333c-55.15946667 0-99.39626667 44.78293333-99.39626666 99.39626667 0 55.15946667 44.78293333 99.39626667 99.39626666 99.39626666 55.15946667 0 99.39626667-44.78293333 99.39626667-99.39626666s-44.2368-99.39626667-99.39626667-99.39626667z"  horiz-adv-x="1024" />

    
    <glyph glyph-name="earth" unicode="&#58906;" d="M511.52380359 720.1121883000001M186.46310343 478.08435428M496.26222364 821.1124554l28.95601779 0c50.24864597-2.33324771 100.31216868-12.06558948 147.02252259-30.99702728 97.40143161-38.53816604 179.60182671-113.68759069 226.91994169-207.11761124 30.07839801-58.55239851 46.00013369-124.0521455 47.40893013-189.80570793l0-15.61086863c-1.39016874-64.90595669-16.88344235-129.55111083-46.23299243-187.53067577C871.75436402 132.94771541 830.29032391 82.37888854000005 780.12900011 42.86853574999998c-51.32329073-40.47671752-111.88875491-69.19405454-175.77013135-83.09806648-25.94515057-5.85291094-52.46546375-8.57619683-78.97064106-10.16080271l-28.98512555 0c-34.74605738 1.83725738-69.41759943 6.51888754-102.91902577 16.06727225-81.12924331 22.48370176-155.20518713 69.34541312-210.53015951 132.76456505-38.91190443 44.27348423-68.61656406 96.61902506-86.77956722 152.70078919-13.29508465 40.78409159-20.06895388 83.56145607-21.14243357 126.42032071l0 15.57710393c1.55084117 79.55977329 24.95433614 158.60260068 67.84812944 225.68811748 45.48318663 71.67749575 112.29625799 129.66637568 189.86741532 164.23778872C384.07075272 806.40508018 440.03725084 818.57545672 496.26222364 821.1124554L496.26222364 821.1124554zM413.07567104 728.15863125c-27.60776477-34.69249991-45.63570916-75.81656519-60.27322595-117.38189824 20.54398635-5.15899164 41.63402638-7.40375211 62.53894428-10.55549895 25.92186482-2.6732214 51.91591595-5.03557575 78.01242624-5.23932785-0.01979278 63.20026397 0.01513585 126.39936398-0.01979278 189.61942072C460.15976335 777.60624299 433.48459861 754.13405468 413.07567104 728.15863125L413.07567104 728.15863125zM528.24540843 594.99587812c35.27115435 0.63221191 70.52717284 3.55924992 105.36986623 9.20840988 11.8478666 1.51591253 23.59327517 3.72923734 35.18383218 6.6062097-17.1221231 48.65006933-39.18434987 97.09056455-75.37413347 134.6751727-17.68680562 18.53790549-39.74204757 33.73544903-65.12484352 39.11682048C528.19767296 721.39756999 528.28615907 658.1973060299999 528.24540843 594.99587812L528.24540843 594.99587812zM378.64164465 763.86756153c-61.61915108-21.47891542-117.83015197-58.32885362-162.06870754-106.31294521 32.35808825-17.09301533 67.03079424-29.72328847 102.43700735-38.79547563 18.48900494 55.72781853 44.42949973 110.84438186 86.21954162 153.00699819C396.13867122 769.97894599 387.40645774 766.8132272299999 378.64164465 763.86756153L378.64164465 763.86756153zM616.20091449 772.02111943c8.6972837-8.01733518 15.69353273-17.59948345 23.28706503-26.60297728 28.47982137-38.04217686 48.39741668-81.79172693 63.18629205-126.76145948 35.3864192 9.22703872 69.96132523 21.9248401 102.45680014 38.7908187C754.5412881 712.27648342 688.35693568 752.82189426 616.20091449 772.02111943L616.20091449 772.02111943zM193.33360868 630.30079716c-50.07982364-65.00375665-79.7972901-145.48099527-82.98280164-227.54516765 58.08085902 0.10245803 116.16171691 0.03492864 174.23791901 0.03492864 1.12238023 61.48409344 9.00815076 122.89483549 24.47813973 182.44037746C268.94525781 595.77828466 229.78070073 610.4227874200001 193.33360868 630.30079716L193.33360868 630.30079716zM712.52886528 585.22977052c15.47348082-59.54437803 23.35459442-120.95628402 24.46300388-182.42174862 58.11462371 0.01513585 116.22575332 0 174.34037702 0-3.41720632 82.04437959-32.9169499 162.57051762-83.13765205 227.52653881C791.83948003 610.32032939 752.58294386 595.88074268 712.52886528 585.22977052L712.52886528 585.22977052zM319.41744867 402.94540857c57.97956494-0.30621013 115.95796594-0.05355747 173.93170888-0.13738667L493.34915755 560.13804885c-50.4675328 0.93376512-100.9746523 6.17891385-150.31864092 16.98706433C328.03206713 520.32265102 320.71098027 461.63402979 319.41744867 402.94540857L319.41744867 402.94540857zM528.24540843 560.15318471c0-52.46080683 0-104.90298368 0.01979278-157.34516167 57.97956494 0.10245803 115.95330901-0.18861625 173.93170887 0.1501935-1.3075035 58.69444209-8.62975545 117.38306333-23.62820381 174.19949738C629.24101859 566.28436195 578.71876323 561.09160562 528.24540843 560.15318471L528.24540843 560.15318471zM110.31820743 367.93272775c3.2670117-82.06417237 32.92277078-162.54141098 83.03403009-227.54516764 36.40867043 19.93273117 75.62678499 34.48292693 115.71579221 45.10479018-15.48861668 59.53971997-23.30220089 120.97025593-24.5119033 182.44037746C226.47992434 367.8989642 168.39906532 367.8989642 110.31820743 367.93272775L110.31820743 367.93272775zM319.43724146 367.79650617000004c1.29353159-58.70841401 8.52613234-117.4703855 23.67477532-174.26819072 49.28228124 10.99676672 99.80337152 16.06727225 150.2220049 17.04062293 0.01979278 52.4410129 0.01979278 104.90298368 0.0197928 157.34399773C435.37541348 367.83027086000004 377.39701362 368.06778652 319.43724146 367.79650617000004L319.43724146 367.79650617000004zM528.24540843 367.91293497000004l0-157.33002581c50.5071195-0.91862926 101.01307392-6.2278144 150.3780204-16.97076452 14.77373952 56.90375623 22.58732374 115.61217024 23.35575837 174.38927758C644.06831673 367.79650617000004 586.15744512 367.96067157000004 528.24540843 367.91293497000004L528.24540843 367.91293497000004zM736.97673329 367.91293497000004c-1.01992221-61.46430066-9.00815076-122.87504271-24.42923917-182.42058468 40.07037838-10.56830578 79.27335709-25.12432242 115.66689166-45.09081827 50.21371733 64.93972139 79.70065408 145.46702336 83.11785927 227.49626709C853.21762247 367.93272775 795.08669895 367.8989642 736.97673329 367.91293497000004L736.97673329 367.91293497000004zM352.83620864 160.02688910999996c16.96727153-48.76533419 39.19832178-97.24075805 75.40789817-134.85913202 17.66701283-18.50297685 39.72923961-33.68654848 65.08991487-39.02949832 0.05355747 63.18163513 0 126.38073515 0.0197928 189.58216306C446.18356509 174.78782179999996 398.9818789 169.98394083999995 352.83620864 160.02688910999996L352.83620864 160.02688910999996zM528.24540843 175.74021574999995c0.01979278-63.20026397-0.03376469-126.42032071 0.03958556-189.61942073 33.10207317 6.99508508 59.76210091 30.38460815 80.13726379 56.32626575 27.66248618 34.74023538 45.80569543 75.91320121 60.36171321 117.58099341-21.15756942 5.11009109-42.79715726 7.57490347-64.29353756 10.69055774C579.1274314 173.18691611999998 553.7457994 175.58420024999998 528.24540843 175.74021574999995L528.24540843 175.74021574999995zM216.50424377 113.25482894000004c50.56999083-54.78939648 116.72057856-95.3883648 188.86146503-114.50492586-41.79004189 42.26623943-67.88655218 97.38163769-86.34179243 153.22588615C283.53503915 143.02701681999997 249.03231943 130.02184135000005 216.50424377 113.25482894000004L216.50424377 113.25482894000004zM702.64050802 152.01071786c-18.57167018-55.87917711-44.61345792-111.06326983-86.49198706-153.38190165 72.09198478 19.28538339 138.29147306 59.72833621 188.88242176 114.53752548C772.70429128 130.28962987 738.01295531 142.8221019 702.64050802 152.01071786L702.64050802 152.01071786zM702.64050802 152.01071786"  horiz-adv-x="1024" />

    
    <glyph glyph-name="huatong" unicode="&#58893;" d="M512.04963211 770.18933862c63.03308862 0 114.25367642-52.46139715 114.25367642-116.98345651l0.2481622-275.70772073c0-64.47242642-51.27022073-116.93382358-114.25367641-116.93382276-62.98345568 0-114.20404432 52.46139715-114.20404432 116.9834557L397.84558862 653.20588211C397.84558862 717.72794146 449.06617642 770.18933862 512 770.18933862z m0 34.69301422c-81.79411789 0-148.05330854-67.89705853-148.05330853-151.67647073l0.19852926-275.70772073c0-83.68014716 66.30882358-151.57720568 148.10294148-151.5772057S660.40073496 293.81801504 660.40073496 377.49816138000006l-0.24816138 275.70772073C660.15257358 736.98529432 593.89338211 804.88235285 512.04963211 804.88235285zM512 122.58639716000005c-136.63786789 0-247.76470568 113.80698496-247.76470568 253.67095569V515.37683862c0 10.72058862 8.4375 19.35661789 18.8602943 19.35661706 10.47242642 0 18.95955854-8.63602927 18.95955854-19.35661706v-139.11948577c0-118.52205853 94.15257358-215.00735285 209.94485284-215.00735285s209.94485285 96.48529432 209.94485285 215.00735285V515.37683862c0 10.72058862 8.4375 19.35661789 18.90992642 19.35661706 10.42279432 0 18.90992642-8.63602927 18.90992641-19.35661706v-139.11948577c0-139.86397073-111.17647073-253.67095568-247.76470568-253.6709557zM493.13970568 141.94301503999998h37.72058864v-164.48161789h-37.72058864v164.48161789zM646.65257358-32.41544147000002H377.34742642a19.10845568 19.10845568 0 0 0-18.86029431 19.35661789c0 10.67095568 8.4375 19.35661789 18.86029431 19.3566179h269.30514716c10.42279432 0 18.86029432-8.68566138 18.86029431-19.3566179 0-10.72058862-8.4375-19.35661789-18.86029431-19.35661789z"  horiz-adv-x="1024" />

    
    <glyph glyph-name="bianji" unicode="&#58882;" d="M358.166 341.375c-0.533-0.68-1.066-1.391-1.304-2.251l-41.104-150.7c-2.4-8.773 0.06-18.226 6.55-24.893 4.86-4.742 11.262-7.35 18.078-7.35 2.252 0 4.505 0.266 6.727 0.86l149.631 40.808c0.238 0 0.357-0.207 0.534-0.207 1.718 0 3.409 0.622 4.684 1.928l400.114 400.054c11.883 11.898 18.404 28.11 18.404 45.743 0 19.989-8.476 39.963-23.324 54.767l-37.787 37.845c-14.816 14.848-34.822 23.339-54.797 23.339-17.632 0-33.843-6.521-45.758-18.39l-400.056-400.16c-0.413-0.384-0.295-0.948-0.592-1.393m504.759 297.427l-39.742-39.713-64.429 65.451 39.18 39.18c6.194 6.222 18.195 5.318 25.31-1.823l37.812-37.846c3.944-3.941 6.195-9.186 6.195-14.372-0.027-4.254-1.54-8.107-4.326-10.877m-433.603-303.71l288.713 288.729 64.46-65.496-288.18-288.164-64.993 64.931zM376.718 218.03l20.864 76.58 55.656-55.658-76.52-20.922zM888.265 480.264c-15.145 0-27.563-12.313-27.62-27.665v-372.982c0-19.56-15.886-35.445-35.476-35.445H194.221c-19.56 0-35.505 15.884-35.505 35.445v608.78c0 19.577 15.945 35.476 35.505 35.476h406.367c15.232 0 27.593 12.372 27.593 27.606 0 15.203-12.361 27.59-27.593 27.59H190.013c-47.684 0-86.493-38.778-86.493-86.492v-617.17c0-47.713 38.81-86.477 86.493-86.477h639.334c47.716 0 86.51 38.764 86.51 86.478v377.37c-0.063 15.173-12.448 27.486-27.592 27.486"  horiz-adv-x="1024" />

    
    <glyph glyph-name="fanhui" unicode="&#58985;" d="M475.591111 595.626667V720.782222c-11.377778 52.337778-54.613333 20.48-54.613333 20.48L120.604444 484.124444c-65.991111-45.511111-4.551111-79.644444-4.551111-79.644444l295.822223-254.862222c59.164444-43.235556 63.715556 22.755556 63.715555 22.755555v116.053334C775.964444 381.724444 898.844444 8.533333 898.844444 8.533333c11.377778-20.48 18.204444 0 18.204445 0 116.053333 559.786667-441.457778 587.093333-441.457778 587.093334z"  horiz-adv-x="1024" />

    
    <glyph glyph-name="dianying" unicode="&#58956;" d="M702.875 288.5625c52.59375 0 95.4375 42.84375 95.4375 95.4375 0 52.59375-42.84375 95.4375-95.4375 95.4375S607.4375 436.59375 607.4375 384c0-52.59375 42.84375-95.4375 95.4375-95.4375z m0 152.71875c31.59375 0 57.28125-25.6875 57.28125-57.28125s-25.6875-57.28125-57.28125-57.28125-57.28125 25.6875-57.28125 57.28125 25.78125 57.28125 57.28125 57.28125zM512 97.59375c52.59375 0 95.4375 42.84375 95.4375 95.4375s-42.84375 95.4375-95.4375 95.4375-95.4375-42.84375-95.4375-95.4375 42.84375-95.4375 95.4375-95.4375z m0 152.8125c31.59375 0 57.28125-25.6875 57.28125-57.28125s-25.6875-57.28125-57.28125-57.28125-57.28125 25.6875-57.28125 57.28125 25.6875 57.28125 57.28125 57.28125zM509.75 479.4375h2.25c51.5625 0 94.21875 41.34375 95.4375 93.1875 1.21875 52.59375-40.59375 96.46875-93.1875 97.6875-25.5 0.65625-49.6875-8.8125-68.15625-26.34375-18.46875-17.625-28.96875-41.34375-29.53125-66.84375-0.5625-25.5 8.8125-49.6875 26.34375-68.15625s41.34375-28.875 66.84375-29.53125z m-37.3125 136.875c10.78125 10.21875 24.75 15.84375 39.46875 15.84375h1.40625c31.59375-0.75 56.625-27 55.875-58.59375-0.75-31.59375-27-56.625-58.59375-55.875-15.28125 0.375-29.53125 6.65625-40.125 17.71875s-16.21875 25.59375-15.84375 40.875c0.46875 15.28125 6.75 29.53125 17.8125 40.03125zM321.125 479.4375c-52.59375 0-95.4375-42.84375-95.4375-95.4375 0-52.59375 42.84375-95.4375 95.4375-95.4375S416.5625 331.40625 416.5625 384c0 52.59375-42.84375 95.4375-95.4375 95.4375z m0-152.71875c-31.59375 0-57.28125 25.6875-57.28125 57.28125s25.6875 57.28125 57.28125 57.28125S378.40625 415.59375 378.40625 384 352.625 326.71875 321.125 326.71875zM836.375 2.4375h-148.59375C831.96875 69 932 214.78125 932 384c0 231.9375-188.0625 420-420 420S92 615.9375 92 384s188.0625-420 420-420h324.375c10.59375 0 19.21875 8.625 19.21875 19.21875s-8.625 19.21875-19.21875 19.21875zM242 114c-35.0625 35.0625-62.625 75.9375-81.84375 121.40625-19.875 47.0625-30 97.03125-30 148.59375s10.125 101.53125 30 148.59375C179.375 578.0625 206.9375 618.9375 242 654s75.9375 62.625 121.40625 81.84375c47.0625 19.875 97.03125 30 148.59375 30s101.53125-10.125 148.59375-30c45.46875-19.21875 86.34375-46.78125 121.40625-81.84375 35.0625-35.0625 62.625-75.9375 81.84375-121.40625 19.875-47.0625 30-97.03125 30-148.59375s-10.125-101.53125-30-148.59375c-19.21875-45.46875-46.78125-86.34375-81.84375-121.40625-35.0625-35.0625-75.9375-62.625-121.40625-81.84375-42.75-18.09375-87.9375-28.03125-134.4375-29.71875H512c-0.9375 0-1.96875-0.09375-2.90625-0.28125-50.53125 0.375-99.5625 10.40625-145.78125 30-45.375 19.21875-86.25 46.78125-121.3125 81.84375z"  horiz-adv-x="1024" />

    
    <glyph glyph-name="chenggong1" unicode="&#58896;" d="M512-128A512 512 0 1 0 512 896a512 512 0 0 0 0-1024z m-49.590857 377.197714L315.977143 397.385143 219.428571 305.15200000000004c70.217143-37.814857 168.594286-106.788571 252.854858-213.723429C531.821714 203.33714299999997 715.337143 432.274286 804.571429 452.754286c-14.409143 57.709714-22.528 166.034286 0 223.817143-183.003429-120.685714-342.162286-427.373714-342.162286-427.373715z"  horiz-adv-x="1024" />

    
    <glyph glyph-name="buzhou4" unicode="&#58886;" d="M512 384m-497.152 0a497.152 497.152 0 1 1 994.304 0 497.152 497.152 0 1 1-994.304 0ZM712.192 230.39999999999998h-70.656v-127.488h-111.104V230.39999999999998h-257.024V307.712l246.784 378.88h121.344V317.44000000000005h70.656v-87.04z m-182.272 87.552V509.44c0 16.384 0.512 35.328 1.536 56.32h-2.048c-2.048-4.608-4.608-11.264-7.68-18.944-3.072-8.192-8.192-16.896-14.336-26.624l-131.072-202.24h153.6z"  horiz-adv-x="1024" />

    
    <glyph glyph-name="buzhou1" unicode="&#58887;" d="M512 384m-497.152 0a497.152 497.152 0 1 1 994.304 0 497.152 497.152 0 1 1-994.304 0ZM722.944 102.91200000000003H358.4V199.67999999999995h121.856V573.44l-125.44-28.16V645.12l247.296 52.224V199.67999999999995h120.832v-96.768z"  horiz-adv-x="1024" />

    
    <glyph glyph-name="buzhou5" unicode="&#58888;" d="M512 384m-497.152 0a497.152 497.152 0 1 1 994.304 0 497.152 497.152 0 1 1-994.304 0ZM354.816 218.11199999999997c40.448-25.088 82.944-37.376 126.976-37.376 34.304 0 61.44 8.192 81.408 25.088 19.968 16.896 30.208 39.936 30.208 69.632 0 60.416-41.984 90.624-125.44 90.624-25.088 0-56.832-2.048-95.744-6.656v322.56H691.2v-100.352h-214.016v-122.88c14.336 1.536 30.72 2.56 48.64 2.56 58.368 0 105.472-15.36 139.776-46.592 34.816-31.232 52.224-73.728 52.224-128 0-60.928-20.48-109.056-60.928-144.896s-94.72-53.76-161.792-53.76c-56.32 0-102.912 8.192-139.776 25.088V218.11199999999997z"  horiz-adv-x="1024" />

    
    <glyph glyph-name="buzhou2" unicode="&#58889;" d="M512 384m-497.152 0a497.152 497.152 0 1 1 994.304 0 497.152 497.152 0 1 1-994.304 0ZM713.728 102.91200000000003H332.8V198.65599999999995l167.936 161.28c35.328 33.792 59.904 61.952 73.728 84.992 14.336 23.04 20.992 46.592 20.992 71.168 0 55.808-29.696 83.456-89.6 83.456-50.176 0-98.304-19.968-145.408-60.416V647.168c50.176 33.28 107.008 49.664 170.496 49.664 57.344 0 103.424-14.848 136.704-44.032 33.792-29.184 50.688-69.632 50.688-121.856 0-68.608-41.472-140.288-124.416-215.04l-121.856-109.568v-2.048h241.152v-101.376z"  horiz-adv-x="1024" />

    
    <glyph glyph-name="buzhou3" unicode="&#58890;" d="M512 384m-497.152 0a497.152 497.152 0 1 1 994.304 0 497.152 497.152 0 1 1-994.304 0ZM348.16 229.88800000000003c38.912-29.184 84.48-43.52 136.704-43.52 32.768 0 58.88 7.168 78.336 22.016 19.456 14.336 29.184 35.328 29.184 62.464 0 27.648-11.264 48.64-34.304 63.488-23.04 14.336-55.296 22.016-96.768 22.016h-52.224V449.536h48.128c78.336 0 117.76 26.624 117.76 79.36 0 49.664-30.208 74.752-90.112 74.752-39.424 0-77.312-12.8-114.176-38.4V665.6c40.448 20.992 87.552 31.232 142.336 31.232 55.296 0 100.352-12.8 134.656-38.4 34.304-25.6 51.712-60.928 51.712-105.984 0-76.288-38.912-124.416-116.224-143.872v-2.048c40.96-4.608 73.216-19.456 97.792-44.544 24.576-25.088 36.352-55.808 36.352-92.16 0-55.808-20.48-98.816-60.928-130.048-40.448-31.232-94.72-46.592-162.304-46.592-59.904 0-108.544 9.728-145.408 29.696V229.88800000000003z"  horiz-adv-x="1024" />

    
    <glyph glyph-name="buzhou6" unicode="&#58891;" d="M512 384m-497.152 0a497.152 497.152 0 1 1 994.304 0 497.152 497.152 0 1 1-994.304 0ZM680.96 572.928c-29.696 16.896-61.952 25.088-96.768 25.088-45.056 0-80.896-17.92-108.032-53.248-27.136-35.328-40.448-80.896-40.448-137.216h2.048c28.16 42.496 69.12 64 123.904 64 49.152 0 88.064-16.896 116.736-50.176 28.672-33.792 43.008-77.312 43.008-131.072 0-58.88-18.944-107.52-56.32-145.92S579.584 87.03999999999996 521.216 87.03999999999996c-67.072 0-118.272 24.064-153.6 72.192-35.84 48.128-53.248 114.176-53.248 198.656 0 98.816 23.04 179.2 69.12 240.64C429.568 660.48 493.568 691.2 576 691.2c44.032 0 78.848-5.12 104.448-15.872v-102.4z m-241.152-283.136c0-30.208 7.68-55.808 22.528-76.8 14.848-20.992 34.816-31.744 59.392-31.744 25.088 0 44.544 9.728 58.88 29.184 14.336 19.456 21.504 43.52 21.504 72.704 0 65.536-27.136 98.304-80.896 98.304-24.576 0-44.032-8.704-58.88-26.112-15.36-17.408-22.528-39.424-22.528-65.536z"  horiz-adv-x="1024" />

    
    <glyph glyph-name="shouye" unicode="&#58883;" d="M718.1-44.5H303.5c-86.3 0-156.6 70.2-156.6 156.6V422.7l-29.8-27.6c-9.7-9-24.8-8.4-33.8 1.2-9 9.6-8.6 24.7 0.9 33.8l70.1 66.8c2.1 2 4.6 3.6 7.2 4.7l304.7 281.8c12.6 11.7 29.1 18.1 46.3 18.1 17.2 0 33.6-6.4 46.2-18.1l383.6-354.3c9.7-9 10.3-24.1 1.5-33.8-8.9-9.8-24-10.5-33.8-1.7l-35.4 31.9V112c0.1-86.3-70.1-156.5-156.5-156.5zM195 467.1v-355c0-28.9 11.3-56.1 31.9-76.7 20.6-20.6 47.8-31.9 76.7-31.9h414.6c28.9 0 56.1 11.3 76.7 31.9 20.6 20.6 31.9 47.8 31.9 76.7V470.8L526.3 748.2c-7.7 7.1-19.7 7.1-27.4 0L195 467.1zM624.2-44.5H398c-19.9 0-36 16.1-36 36V293.9c0 19.9 16.1 36 36 36h226.2c19.9 0 36-16.1 36-36v-302.4c0-19.9-16.1-36-36-36z m-214.2 48h202.2V281.9H410v-278.4z"  horiz-adv-x="1024" />

    
    <glyph glyph-name="fanyi" unicode="&#58885;" d="M788.2-57.700000000000045H232.8c-90.4 0-164 73.6-164 164V661.7c0 90.4 73.6 164 164 164h555.5c90.4 0 164-73.6 164-164v-555.5c-0.1-90.4-73.6-163.9-164.1-163.9zM232.8 777.7c-64 0-116-52-116-116v-555.5c0-64 52-116 116-116h555.5c64 0 116 52 116 116V661.7c0 64-52 116-116 116H232.8zM414.8 284.4c0.3-11.4 1.4-24.4 3.2-38.8-30.5-18.3-55.8-35.5-75.8-51.4L321 223.10000000000002c10.5 9.3 15.7 22.5 15.7 39.7V439.6h-56.4v32.5h91.5v-217.4c12.7 8.4 27 18.3 43 29.7zM334 618.6c25.3-24.7 49.3-49.3 72.1-74l-31.9-26.2c-20.9 25.9-43.7 51.9-68.4 78l28.2 22.2z m99.8-42.4v30.7h275.9v-30.2c-21.4-35.5-54-66.1-97.7-92 36.2-15.3 79.3-25.4 129.2-30.2-6.8-11.4-13.2-23.2-19.4-35.2-57.6 9.5-106.3 24.8-146 46-42.5-20.1-93.2-36.8-152-50.1-5.9 11.7-12.5 23-19.9 33.8 52.8 7.5 99.2 19.6 139.1 36.3-34.7 24.5-60.5 54.8-77.4 90.9h-31.8zM426.4 302h132.2v55H445.8v30.7h112.8v47.4h35.1v-47.4H718V357H593.7v-55h146v-30.7h-146v-86.6h-35.1v86.6H426.4V302z m242.1 274.2H502.2c17.9-30.2 43.1-55 75.6-74.4 37 20 67.3 44.8 90.7 74.4zM601.7 176.79999999999995h-51.1v86.6H424.2c0.5-5.3 1.1-10.9 1.9-16.7l0.7-5.2-4.5-2.7c-30.1-18.1-55.3-35.2-74.9-50.8l-6.5-5.2-30.5 41.4 5.4 4.8c8.8 7.8 13 18.8 13 33.7V431.6h-56.4v48.5h107.5v-210.3c9.3 6.4 19.5 13.5 30.3 21.2l8.2 5.8V310h132.2v39H437.8v46.7h112.8v47.4h51.1v-47.4H726V349H601.7v-39h146v-46.7h-146v-86.5z m-35.1 16h19.1v86.6h146V294h-146v71H710v14.7H585.7v47.4h-19.1v-47.4H453.8V365h112.8v-71H434.4v-14.7h132.2v-86.5z m-235.1 29.6l12.4-16.8c18.1 13.8 40.1 28.7 65.6 44.2-0.8 6.9-1.5 13.5-1.9 19.7-11.4-8-21.9-15.2-31.3-21.5l-12.4-8.3V464.1h-75.5v-16.5h56.4v-184.8c-0.1-16.5-4.5-30-13.3-40.4z m87.8 183.7l-2.8 5.6c-5.7 11.4-12.2 22.4-19.3 32.9l-7.3 10.6 12.7 1.8c46.2 6.6 87.8 16.8 124 30.5-28.5 22.5-50.7 49.6-66.2 80.7h-34.6v46.7h291.9v-40.4l-1.2-1.9c-19.7-32.6-48.9-61.6-86.8-86.3 32.2-11.8 69.9-19.8 112.2-23.9l12.5-1.2-6.4-10.8c-6.7-11.2-13.1-22.9-19.2-34.7l-2.7-5.2-5.8 0.9c-56.5 9.3-105.2 24.4-144.9 45-42.1-19.6-92.6-36-150.1-48.9l-6-1.4z m-2.1 36.9c3.8-6.1 7.3-12.3 10.7-18.6 55.5 12.8 104 29 144.3 48.1l3.6 1.7 3.6-1.9c37.5-20 83.8-34.8 137.8-44.2 3.5 6.6 7.1 13.2 10.7 19.7-45.4 5.3-85.4 15.2-119.2 29.5l-14.6 6.2 13.7 8.1c41.6 24.6 73.2 54 93.8 87.4v20H441.8v-14.7h28.7l2.2-4.6c16.3-34.6 41.4-64.2 74.8-87.7l11.8-8.3-13.3-5.6c-37.3-15.7-80.5-27.4-128.8-35.1z m160.3 49.6l-3.9 2.3c-33.5 20-59.9 46-78.3 77.2l-7.1 12.1h196.9l-10.2-13c-24-30.3-55.4-56.1-93.3-76.5l-4.1-2.1z m-60.7 75.6c15.6-22.4 36.1-41.6 61.1-57.2 28.7 16 53.3 35.1 73.3 57.2H516.8z m-143.8-61l-5.1 6.3c-20.7 25.6-43.6 51.7-68 77.6l-6 6.4 40.6 31.8 5-4.9c25.3-24.6 49.6-49.6 72.4-74.3l5.8-6.2-44.7-36.7z m-55.4 88.4c20.5-22 39.8-44.1 57.7-65.8l19.1 15.7c-19.4 20.8-39.9 41.8-61 62.5l-15.8-12.4z"  horiz-adv-x="1024" />

    
    <glyph glyph-name="guanyuwomen" unicode="&#58894;" d="M418.1-54.799999999999955c-12.4 0.1-28.7 2.1-45.3 16.3-3.7 3.2-66.7 64.9-197.6 193.2-39.6 38.9-74 72.6-78 76.4-6.3 5.7-20 21.3-24 38.9l-1.2-1.3V476.6c0.2 13.1 2.2 28.7 16.3 45.1 2.4 2.6 19.6 20.3 198.6 203.2 36.4 37.1 67.9 69.3 70.9 72.5 8 8.8 27.9 24.9 48.4 25.1h1.7l195.1 0.1h0.1c13.2-0.2 28.9-2.2 45.2-16.4 3.5-3 60.2-58.5 186-181.8 45.8-44.9 85.5-83.8 89.5-87.6 9-8.1 25.4-28.5 25.1-49v-1.1l-0.1-1v-0.3l0.2 0.1 0.1-193.7v-0.1c-0.1-12.3-2.1-28.5-16.3-45.1l-0.1-0.1c-3.2-3.7-64.4-66.2-191.9-196.2-39.4-40.2-73.6-75.1-77.6-79.2-6.7-7.5-27.1-25.1-48.2-25.7l0.1-0.1-197-0.1zM399-8.299999999999955c7-5.9 12.6-6.5 19.3-6.5h115.5c-0.5 0.9-0.9 1.9-1.3 2.7-0.6 1.2-1.1 2.3-1.5 3.2-0.1 0.3-0.3 0.6-0.4 1l-0.3 0.6c-1.9 4.5-4.1 9.7-6 15.5-0.4 1.3-0.9 2.8-1.5 4.3-0.4 1.2-0.9 2.6-1.4 4l-0.5 1.5c-5.2 14.8-10.5 30-15.8 44.9l-0.3 0.9c-0.4 1.2-0.8 2.3-1.2 3.5-0.3 0.9-0.6 1.8-0.9 2.6-0.4 1.2-0.9 2.5-1.4 3.8l-0.1 0.4-1.2 3.5c-2.3 6.5-4.7 13.3-7 20.2-1.2 3.3-2.3 6.6-3.5 10-2.2 6.4-4.5 12.8-6.9 19.3l-0.2 0.7-0.6 1.7c-7.4 21.1-15.1 42.8-22.4 63.6-5.9 16.7-11.6 32.8-16.7 47.4-18.8 50.8-29.8 58.7-77.2 76.3-15.9 5.7-50 17.7-101.6 35.7-5.8-2.1-11.6-4.1-17.2-6.1-8.8-3.1-17.4-6.1-25.6-9h-0.1c-32.6-11.4-55.6-19.4-66.3-23.2l-1.3-0.4c-0.2-0.1-0.4-0.1-0.6-0.2-0.5-0.2-0.9-0.3-1.4-0.5l-0.4-0.1c-1.9-0.7-3.6-1.4-5.2-2.1l-1.2-0.5c-1.7-0.7-3.3-1.5-5-2.3l-0.4-0.2c-0.8-0.5-1.7-0.9-2.5-1.3l-0.4-0.2c-1.3-0.7-2.3-1.2-3.1-1.7l-0.7-0.4c-0.7-0.4-1.3-0.8-2-1.2-0.9-0.6-1.7-1.1-2.5-1.6-0.4-0.3-0.7-0.5-1.1-0.8-0.3-0.2-0.6-0.4-0.8-0.6l-0.9-0.7c-0.1-0.1-0.2-0.1-0.3-0.2-0.5-0.4-0.9-0.7-1.4-1.1-0.3-0.2-0.7-0.6-1.2-1-0.3-0.3-0.6-0.5-0.9-0.8-0.3-0.2-0.5-0.5-0.8-0.8l-0.3-0.3c-0.3-0.3-0.7-0.7-1.2-1.1l-0.1-0.1c-0.1-0.2-0.3-0.3-0.4-0.4l-0.5-0.6c-0.5-0.5-0.9-1-1.3-1.5-0.2-0.3-0.5-0.6-0.8-1l-0.1-0.2c-0.1-0.2-0.2-0.3-0.4-0.5l-0.5-0.8-0.6-0.9-0.1-0.2-0.6-1.2c-0.2-0.3-0.3-0.6-0.4-0.9v-0.1c-0.9-2.3-1-4.1-1.1-5.7v-0.5c0.2-3.9 6.7-14.1 11.9-18.7l0.6-0.6c2.8-2.7 34.6-33.9 78.6-77 75.1-73.6 188.6-184.8 195.7-191.5z m213.3-6.1c0.8-0.1 1.4-0.2 2-0.3 4 0.3 14.4 7.1 19.1 12.4l0.6 0.7c2.7 2.8 34.4 35.1 78.1 79.8 73.2 74.7 183.6 187.2 190.4 194.5 5.9 7 6.5 12.6 6.5 19.2V407.5c-0.9-0.5-1.9-0.9-2.9-1.4l-1.3-0.6c-0.8-0.4-1.6-0.7-2.4-1.1l-0.6-0.3c-5-2.1-10-4.2-15.8-6.1-1.5-0.5-3.2-1.1-5.1-1.7l-4.2-1.5c-13.2-4.6-33.2-11.7-56.7-20-54.4-19.1-119.7-42.1-166.5-58.6-50.9-18.9-58.8-29.8-76.3-77.1-7.7-21.4-25-71.3-35.6-101.7l2-5.5c3.5-9.9 6.8-19.2 10-28.3 1-2.6 1.8-5.1 2.7-7.6l0.6-1.6c0.5-1.4 0.9-2.6 1.4-3.9l0.3-0.9c2.1-6 4.1-11.7 6-17.2 2.5-7 4.8-13.5 6.8-19.3l1.9-5.4c2-5.7 3.7-10.6 5.1-14.7 0.6-1.7 1.4-3.7 2-5.7 3.1-8.5 6.6-16 10.3-22.2l0.9-1.6c0.7-1.2 1.5-2.3 2.2-3.3l0.6-0.9c0.7-0.9 1.4-1.9 2.3-3l0.4-0.5c0.1-0.1 0.2-0.3 0.3-0.4 0.6-0.7 1.1-1.3 1.5-1.6l0.7-0.6 0.6-0.7 1-1c0.5-0.4 1-0.8 1.4-1.2 0.1-0.1 0.3-0.2 0.4-0.3l0.3-0.2c3.4-2.6 6.2-3.5 8.2-3.9l0.8-0.3zM294.9 384.1c41.8-14.6 70-24.5 84.1-29.6l0.2-0.1c57.4-21.3 77.6-37 100.9-100.1l0.1-0.3c5.2-14.6 10.9-30.8 16.8-47.6 4.4-12.3 8.8-25 13.3-37.7 10.3 29.5 23.1 66.3 29.4 83.8l0.1 0.2c21.2 57.3 36.9 77.5 100.1 100.9l0.3 0.1c24.8 8.7 54.7 19.3 85.5 30.1-31.6 11-65.9 23-82.5 29l-0.2 0.1-1 0.4c-57.4 21.2-77.6 36.9-100.9 100.1l-0.1 0.3c-5.8 16.6-12.3 35-19.1 54.2-3.6 10.3-7.3 20.8-11 31.3-10.1-28.9-23.1-66.2-29.4-83.7l-0.1-0.1c-21.2-57.3-36.9-77.5-100.2-100.9l-0.4-0.1c-25.6-9-55.7-19.6-85.9-30.3zM112 476.3l0.1-115.5c0.9 0.4 1.8 0.9 2.7 1.3l0.2 0.1c1.5 0.7 3 1.3 4.4 1.9l2.7 1.1c1.6 0.7 3.3 1.5 5.4 2.3l0.8 0.3c0.4 0.1 0.8 0.3 1.2 0.4 0.7 0.3 1.5 0.5 2.2 0.8 0.7 0.3 1.9 0.8 3.4 1.3l10.8 3.8c13.2 4.6 32.6 11.4 55.1 19.3 18.5 6.5 39.2 13.8 60.4 21.3 36.7 13 74.6 26.4 106 37.3 51 18.9 58.9 29.9 76.4 77.2 7.5 20.7 24.6 69.7 34.8 99l0.8 2.3c-0.2 0.7-0.5 1.4-0.7 2.1-0.9 2.7-1.8 5.3-2.8 8-1.5 4.2-3 8.4-4.4 12.4-0.7 2-1.4 4.1-2.1 6.1-1.7 5-3.5 9.9-5.2 14.6l-0.1 0.2c-1.7 5.1-3.5 10-5.1 14.7-1.2 3.4-2.4 6.6-3.5 9.8-7.7 21.5-12.8 36.4-14.7 41.9-3 8.5-6.4 16-10.1 22.2l-0.3 0.4c-0.9 1.5-1.8 2.9-2.9 4.6l-0.6 0.8c-0.8 1.1-1.7 2.3-2.5 3.3-0.3 0.3-0.7 0.8-1.2 1.4-0.5 0.5-1 1.1-1.6 1.7l-1 1c-0.1 0.1-0.3 0.2-0.4 0.3-0.4 0.3-0.8 0.7-1.1 1l-1.1 0.7-0.9 0.8-0.1 0.1c-0.1 0.1-0.2 0.1-0.3 0.2-0.3 0.2-0.5 0.3-0.8 0.5l-0.1 0.1-0.7 0.3-1 0.7c-0.1 0.1-0.3 0.1-0.4 0.2l-0.4 0.1-0.9 0.4c-0.1 0-0.2 0.1-0.3 0.1-0.3 0.1-0.6 0.2-1 0.3l-4.8 0.6c-4.4-0.8-13.9-6.9-18.4-12l-0.5-0.5c-1.3-1.3-25.4-26-71.5-73-71.7-72.6-190.6-194-197.5-201.3-5.7-6.7-6.3-12.2-6.4-19z m542.8-25l1-0.3c19.2-6.9 65.1-23 101.3-35.5 9.7 3.4 19.1 6.7 28.3 10l12 4.3c0.7 0.2 1.5 0.5 2.2 0.8l0.8 0.3c8.4 3 16.5 5.8 23.9 8.4 12.4 4.4 23 8.1 31.3 11l3.8 1.3c2.9 1 5.3 1.9 7.4 2.6l0.4 0.1c0.7 0.2 1.6 0.6 2.6 1l1.5 0.6 1.5 0.6c1.1 0.4 2.1 0.8 2.9 1.1l0.4 0.2 0.9 0.4c2.1 0.9 4 1.7 5.5 2.5l0.3 0.2 0.9 0.5c2.1 1.1 3.8 2 5.2 2.8l0.7 0.4c2.2 1.4 3.8 2.3 5 3.2l1 0.7c1.1 0.8 2.1 1.6 2.8 2.2l0.1 0.1c0.2 0.2 0.5 0.4 0.8 0.7l0.3 0.3c0.6 0.6 1.4 1.2 1.8 1.6l0.6 0.6 0.3 0.3c0.5 0.5 1.1 1.1 1.6 1.7 0.1 0.1 0.2 0.3 0.3 0.4l0.5 0.7c0.3 0.4 0.6 0.8 0.9 1.1 0.3 0.5 0.6 1 1 1.5 0 0.1 0.1 0.2 0.2 0.3 0.2 0.5 0.4 0.9 0.6 1.3l0.3 0.6 0.1 0.3c0.1 0.3 0.5 1.3 0.6 1.6v0.1c0.5 1.7 0.6 3.2 0.8 4.6v0.4c-0.5 4.1-6.8 13.9-12 18.5l-0.4 0.4c-3 2.8-34.6 33.8-90.1 88.2-71.2 69.2-178 173.9-184.7 180-6.9 5.9-12.4 6.5-19.3 6.6H487.2c0.4-0.8 0.8-1.6 1.2-2.5 0.8-1.6 1.5-3.2 2.3-5 2.1-4.9 3.8-9 5.2-13.1l0.1-0.2 0.6-1.8c3.3-9.6 10.1-29.1 19.4-55.3l0.1-0.2c0.7-2 1.4-4 2.2-6.2 0.5-1.5 1.1-2.9 1.6-4.4l1.2-3.4c5.2-14.9 11-31.4 17-48.2l0.3-0.8c0.1-0.3 0.2-0.5 0.3-0.8l2.3-6.2v-0.3c6.2-17.6 12.5-35.5 18.6-52.9 6.7-19.1 13.2-37.5 19-54.1 18.7-50.5 29.6-58.7 76.2-75.9z m-535.9 44.6l-0.3-0.3-0.1-0.1c0.2 0.1 0.3 0.3 0.4 0.4z"  horiz-adv-x="1024" />

    
    <glyph glyph-name="kehuzhongxin" unicode="&#58895;" d="M511.1 344c-116.5 0-211.3 94.8-211.3 211.3s94.8 211.3 211.3 211.3c116.5 0 211.3-94.8 211.3-211.3S627.6 344 511.1 344z m0 374.6c-90 0-163.3-73.3-163.3-163.3S421.1 392 511.1 392s163.3 73.3 163.3 163.3-73.2 163.3-163.3 163.3zM848.6 2.7999999999999545H175.3c-57.3 0-104 46.7-104 104v6.1c0 101.5 82.5 184 184 184h507.2c104.8 0 190.1-85.3 190.1-190.1 0-57.3-46.6-104-104-104zM255.3 248.89999999999998c-75 0-136-61-136-136v-6.1c0-30.9 25.1-56 56-56h673.3c30.9 0 56 25.1 56 56 0 78.3-63.7 142.1-142.1 142.1H255.3z"  horiz-adv-x="1024" />

    
    <glyph glyph-name="icon-test" unicode="&#58900;" d="M512 768c-211.7 0-384-172.3-384-384s172.3-384 384-384 384 172.3 384 384-172.3 384-384 384z m0-720c-185.3 0-336 150.7-336 336s150.7 336 336 336 336-150.7 336-336-150.7-336-336-336zM769.8 360c0 1.3-0.5 2.4-0.7 3.7-0.3 1.6-0.4 3.2-0.9 4.7s-1.4 2.7-2.2 4c-0.8 1.3-1.5 2.6-2.6 3.8-1 1.1-2.3 1.9-3.5 2.8-1.2 0.9-2.4 1.9-3.8 2.6-1.4 0.7-3 0.9-4.5 1.3-1.2 0.3-2.3 1-3.7 1.1-0.4 0-0.7-0.1-1-0.1-0.3 0-0.6 0.2-1 0.2H278.2c-0.7 0-1.2-0.3-1.9-0.4-0.7-0.1-1.3 0.2-2 0.1-1-0.2-1.8-0.7-2.7-1-1.6-0.5-3.1-0.9-4.5-1.7-1.4-0.7-2.6-1.6-3.7-2.5-1.2-1-2.3-1.9-3.3-3.1-1-1.2-1.8-2.4-2.6-3.8-0.7-1.3-1.4-2.6-1.9-4.1-0.5-1.5-0.8-3.1-1-4.7-0.1-1-0.6-1.8-0.6-2.8 0-0.7 0.3-1.2 0.4-1.9 0.1-0.7-0.2-1.3-0.1-1.9 26.1-162.6 153.9-234.7 265.3-234.7 3.2 0 6.5 0.1 9.7 0.2 110 4.2 226.9 78.9 240.1 236.4 0 0.4-0.1 0.7-0.1 1 0.3 0.2 0.5 0.4 0.5 0.8z m-242-190.4c-90-3.1-188.5 47.3-219.9 166.4h410.5c-21.2-117.6-113.7-163.5-190.6-166.4z"  horiz-adv-x="1024" />

    


  </font>
</defs>
</svg>
